<svg id="0107ecda-b36d-4a82-a921-53d349f016be" data-name="ICONS EXPORT" xmlns="http://www.w3.org/2000/svg" width="32" height="32" viewBox="0 0 32 32"><title>alert-diamond</title><path d="M16,18a1,1,0,0,1-1-1V10a1,1,0,0,1,2,0v7A1,1,0,0,1,16,18Zm-1.5,3.5A1.5,1.5,0,1,0,16,20,1.5,1.5,0,0,0,14.5,21.5Zm14.09-8.33L18.83,3.41a4,4,0,0,0-5.66,0L3.41,13.17a4,4,0,0,0,0,5.66l9.76,9.76a4,4,0,0,0,5.66,0l5.88-5.88-1.42-1.42-5.88,5.88a2,2,0,0,1-2.82,0L4.83,17.41a2,2,0,0,1,0-2.82l9.76-9.76a2,2,0,0,1,2.82,0l9.76,9.76a2,2,0,0,1,0,2.82l-1.88,1.88h0a1,1,0,0,0,1.42,1.42h0l1.88-1.88A4,4,0,0,0,28.59,13.17Z"/></svg>