<svg id="824cab74-de4c-4a68-a3b1-aebc7baa668f" data-name="ICONS EXPORT" xmlns="http://www.w3.org/2000/svg" width="32" height="32" viewBox="0 0 32 32"><title>alert-triangle</title><path d="M30.1,27.48A3.39,3.39,0,0,1,27,29H5a3.39,3.39,0,0,1-3.1-1.52A3.41,3.41,0,0,1,2.13,24L13.13,5A3.43,3.43,0,0,1,16,3,3.43,3.43,0,0,1,18.87,5l8.87,15.38h0a1,1,0,0,1-1.74,1h0L17.13,6c-.68-1.18-1.58-1.18-2.26,0L3.87,25a1.5,1.5,0,0,0-.24,1.44A1.53,1.53,0,0,0,5,27H27a1.53,1.53,0,0,0,1.37-.52A1.5,1.5,0,0,0,28.13,25l1.74-1A3.41,3.41,0,0,1,30.1,27.48ZM17,19V12a1,1,0,0,0-2,0v7a1,1,0,0,0,2,0Zm-2.5,4.5A1.5,1.5,0,1,0,16,22,1.5,1.5,0,0,0,14.5,23.5Z"/></svg>