<svg id="8620d18d-bee6-416f-b85a-03aa8477d68c" data-name="ICONS EXPORT" xmlns="http://www.w3.org/2000/svg" width="32" height="32" viewBox="0 0 32 32"><title>apps</title><path d="M9,3H5A2,2,0,0,0,3,5V9a2,2,0,0,0,2,2H9a2,2,0,0,0,2-2V5A2,2,0,0,0,9,3ZM9,9H5V5H9Zm9-6H14a2,2,0,0,0-2,2V9a2,2,0,0,0,2,2h4a2,2,0,0,0,2-2V5A2,2,0,0,0,18,3Zm0,6H14V5h4Zm9-6H23a2,2,0,0,0-2,2V9a2,2,0,0,0,2,2h4a2,2,0,0,0,2-2V5A2,2,0,0,0,27,3Zm0,6H23V5h4ZM9,12H5a2,2,0,0,0-2,2v4a2,2,0,0,0,2,2H9a2,2,0,0,0,2-2V14A2,2,0,0,0,9,12Zm0,6H5V14H9Zm9-6H14a2,2,0,0,0-2,2v4a2,2,0,0,0,2,2h4a2,2,0,0,0,2-2V14A2,2,0,0,0,18,12Zm0,6H14V14h4Zm9-6H23a2,2,0,0,0-2,2v4a2,2,0,0,0,2,2h4a2,2,0,0,0,2-2V14A2,2,0,0,0,27,12Zm0,6H23V14h4ZM9,21H5a2,2,0,0,0-2,2v4a2,2,0,0,0,2,2H9a2,2,0,0,0,2-2V23A2,2,0,0,0,9,21Zm0,6H5V23H9Zm9-6H14a2,2,0,0,0-2,2v4a2,2,0,0,0,2,2h4a2,2,0,0,0,2-2V23A2,2,0,0,0,18,21Zm0,6H14V23h4Zm9-6H23a2,2,0,0,0-2,2v4a2,2,0,0,0,2,2h4a2,2,0,0,0,2-2V23A2,2,0,0,0,27,21Zm0,6H23V23h4Z"/></svg>