<svg id="b7f2e55d-16b2-41ba-b6c2-8acf17db7fda" data-name="ICONS EXPORT" xmlns="http://www.w3.org/2000/svg" width="32" height="32" viewBox="0 0 32 32"><title>babies</title><path d="M24,13a3,3,0,0,0-2.23-2.89,7.11,7.11,0,0,0-2.35-3.86,3.82,3.82,0,0,0,.08-.75,3.5,3.5,0,0,0-7,0,3.82,3.82,0,0,0,.08.75,7.11,7.11,0,0,0-2.35,3.86,3,3,0,0,0-1.15,5.18A4,4,0,0,0,8,18v8a4,4,0,0,0,4,4h8a4,4,0,0,0,4-4V25h0a1,1,0,0,0-2,0h0V26a2,2,0,0,1-2,2H12a2,2,0,0,1-2-2V25h2a1,1,0,0,0,0-2H10V21h4a1,1,0,0,0,0-2H10V18a2,2,0,0,1,2-2h8a2,2,0,0,1,2,2v3h2V18a4,4,0,0,0-1.08-2.71A3,3,0,0,0,24,13ZM14.29,7.49a1,1,0,0,0,.38-1.32,1.5,1.5,0,1,1,2.66,0,1,1,0,0,0,.38,1.32A4.7,4.7,0,0,1,19.66,10H12.34A4.7,4.7,0,0,1,14.29,7.49ZM12,14H11a1,1,0,0,1,0-2H21a1,1,0,0,1,0,2H12Z"/></svg>