<svg id="08324f21-6487-469e-b4fa-8f9cc32b3eda" data-name="ICONS EXPORT" xmlns="http://www.w3.org/2000/svg" width="32" height="32" viewBox="0 0 32 32"><title>beauty</title><path d="M27,21.16v0a11,11,0,0,0-7-9.38V9a1,1,0,0,0-1-1H15V4h2V5a1,1,0,0,0,2,0V4a2,2,0,0,0-2-2H15a2,2,0,0,0-2,2V8a1,1,0,0,0-1,1v2.76A11,11,0,0,0,8.15,29.7a1,1,0,0,0,.71.3H23.14a1,1,0,0,0,.71-.3A11,11,0,0,0,27,22C27,21.72,27,21.44,27,21.16ZM14,10h4v1.19a10.62,10.62,0,0,0-4,0Zm2,3a9,9,0,0,1,8.67,6.62A10.6,10.6,0,0,0,21,19a15.65,15.65,0,0,0-5.32,1.05A13.76,13.76,0,0,1,11,21a9.68,9.68,0,0,1-3.82-.8A9,9,0,0,1,16,13Zm6.7,15H9.3A9,9,0,0,1,7,22.27,10.76,10.76,0,0,0,11,23,15.65,15.65,0,0,0,16.32,22,13.76,13.76,0,0,1,21,21a9.82,9.82,0,0,1,4,.87c0,.05,0,.09,0,.13A8.91,8.91,0,0,1,22.7,28Z"/></svg>