<svg id="dc91ff74-c5c1-4ae3-8180-eade557a2d3b" data-name="ICONS EXPORT" xmlns="http://www.w3.org/2000/svg" width="32" height="32" viewBox="0 0 32 32"><title>bell</title><path d="M27.71,21.29,25,18.59V17a1,1,0,0,0-2,0v2a1,1,0,0,0,.29.71L26,22.41V23H6v-.59l2.71-2.7A1,1,0,0,0,9,19V13a7,7,0,0,1,14,0h2a9,9,0,0,0-8-8.94V3a1,1,0,0,0-2,0V4.06A9,9,0,0,0,7,13v5.59l-2.71,2.7A1,1,0,0,0,4,22v2a1,1,0,0,0,1,1h6a5,5,0,0,0,10,0h6a1,1,0,0,0,1-1V22A1,1,0,0,0,27.71,21.29ZM16,28a3,3,0,0,1-3-3h6A3,3,0,0,1,16,28Z"/></svg>