<svg id="157ec401-b45a-453b-8f9e-803faa67266a" data-name="ICONS EXPORT" xmlns="http://www.w3.org/2000/svg" width="32" height="32" viewBox="0 0 32 32"><title>bell-strikethrough</title><path d="M25,18.59l2.71,2.7A1,1,0,0,1,28,22v1l-5-5V17a1,1,0,0,1,2,0ZM18,23l2.91,2.91A5,5,0,0,1,11,25H5a1,1,0,0,1-1-1V22a1,1,0,0,1,.29-.71L7,18.59V13c0-.32,0-.64,0-.95L9,14v5a1,1,0,0,1-.29.71L6,22.41V23Zm1,2H13a3,3,0,0,0,6,0ZM16,6a7,7,0,0,1,7,7h2a9,9,0,0,0-8-8.94V3a1,1,0,0,0-2,0V4.06a8.85,8.85,0,0,0-4.27,1.67l1.43,1.43A6.92,6.92,0,0,1,16,6ZM29.71,28.29l-26-26A1,1,0,0,0,2.29,3.71l26,26a1,1,0,0,0,1.42,0A1,1,0,0,0,29.71,28.29Z"/></svg>