<svg id="77ea5e71-3e8a-4264-87b6-d4600c1871e3" data-name="ICONS EXPORT" xmlns="http://www.w3.org/2000/svg" width="32" height="32" viewBox="0 0 32 32"><title>bike</title><path d="M24,14l-.74-4.49a3,3,0,0,0-3-2.51H18a1,1,0,0,0,0,2h2.31a1,1,0,0,1,1,.83l.2,1.17H12.62a2,2,0,0,0-.21-.92,2,2,0,0,0-1.17-1A2.15,2.15,0,0,0,10.63,9H9a1,1,0,0,0,0,2h1.63l-1,3.24A5.85,5.85,0,0,0,8,14a6,6,0,1,0,5.91,7H17V20a7,7,0,0,1,4.88-6.66l.48,2.89,1-.16A4,4,0,1,1,20,20a4.11,4.11,0,0,1,.47-1.88,1,1,0,0,0-1.76-.95,7.89,7.89,0,0,0-.33.72A6,6,0,1,0,24,14ZM8,24a4,4,0,1,1,4-4A4,4,0,0,1,8,24Zm7.05-5H13.91a6,6,0,0,0-2.49-3.91L12.09,13h6.25A9,9,0,0,0,15.05,19Z"/></svg>