<svg id="d61cf4d2-15bc-471a-a586-9bfdbd09d0e4" data-name="ICONS EXPORT" xmlns="http://www.w3.org/2000/svg" width="32" height="32" viewBox="0 0 32 32"><title>bolt</title><path d="M26.78,13.63l-13,16A1,1,0,0,1,13,30a1,1,0,0,1-1-1.29L14.66,20H7a1,1,0,0,1-.79-.39A1,1,0,0,1,6,18.74l4-15A1,1,0,0,1,11,3H22a1,1,0,0,1,.86.49,1,1,0,0,1,0,1L18.7,12h1.35a1,1,0,0,1,0,2H17a1,1,0,0,1-.86-.49,1,1,0,0,1,0-1L20.3,5H11.77L8.3,18H16a1,1,0,0,1,.8.4,1,1,0,0,1,.16.89l-1.55,5.16L23.9,14H23V12h3a1,1,0,0,1,.9.57A1,1,0,0,1,26.78,13.63Z"/></svg>