<svg id="9f1aa795-939f-4dfb-b9f8-b315973a65fd" data-name="ICONS EXPORT" xmlns="http://www.w3.org/2000/svg" width="32" height="32" viewBox="0 0 32 32"><title>box</title><path d="M29,20V10a.71.71,0,0,0,0-.2.67.67,0,0,0-.05-.19,0,0,0,0,0,0,0l-2.55-5.1A2.78,2.78,0,0,0,24,3H8A2.78,2.78,0,0,0,5.66,4.45L3.11,9.55a0,0,0,0,0,0,0,.67.67,0,0,0-.05.19A.71.71,0,0,0,3,10V26a3,3,0,0,0,3,3H26a3,3,0,0,0,3-3V24a1,1,0,0,0-2,0v2a1,1,0,0,1-1,1H6a1,1,0,0,1-1-1V11H15v3a1,1,0,0,0,2,0V11H27v9ZM5.62,9,7.45,5.34A.81.81,0,0,1,8,5h7V9ZM17,5h7a.81.81,0,0,1,.55.34L26.38,9H17ZM13,23a1,1,0,0,1,0,2H9a1,1,0,0,1,0-2Z"/></svg>