<svg id="b3d1c3ca-17c7-49a1-b6b6-151e95204cf9" data-name="ICONS EXPORT" xmlns="http://www.w3.org/2000/svg" width="32" height="32" viewBox="0 0 32 32"><title>branch</title><path d="M27,18V2H5V28a2,2,0,0,0,2,2H25a2,2,0,0,0,2-2V23h0a1,1,0,0,0-2,0h0V28H23V18H9V28H7V4H25V18ZM21,28H17V25h1a1,1,0,0,0,0-2H17V20h4ZM11,20h4v3H14a1,1,0,0,0,0,2h1v3H11ZM19.2,7a.81.81,0,0,1,.8.82v7.09a.88.88,0,0,1,0,.16.8.8,0,0,1-.79.66.83.83,0,0,1-.72-.43L16,10.84a4.08,4.08,0,0,1-4,3.41V12.62a2.46,2.46,0,0,0,2.45-2.46V7.89h0a.82.82,0,0,1,.42-.79.78.78,0,0,1,.39-.1.83.83,0,0,1,.71.43l2.4,4.36v-4A.81.81,0,0,1,19.2,7Z"/></svg>