<svg id="1a822f69-4a2c-4d93-bd81-0ad711f9e777" data-name="ICONS EXPORT" xmlns="http://www.w3.org/2000/svg" width="32" height="32" viewBox="0 0 32 32"><title>bus</title><path d="M26,16a1,1,0,0,0,1-1V6a2,2,0,0,0-2-2H20.82A3,3,0,0,0,18,2H14a3,3,0,0,0-2.82,2H7A2,2,0,0,0,5,6V29a1,1,0,0,0,1,1H8a1,1,0,0,0,1-1V27H23v2a1,1,0,0,0,1,1h2a1,1,0,0,0,1-1V19H18l1.8-2.4a1,1,0,1,0-1.6-1.2L15.5,19H7V6h4.18A3,3,0,0,0,14,8h4a3,3,0,0,0,2.82-2H25v9A1,1,0,0,0,26,16Zm-1,5v4H7V21ZM18,6H14a1,1,0,0,1,0-2h4a1,1,0,0,1,0,2Z"/></svg>