<svg id="32e7cefc-70a8-4b3e-97cc-4f258c58ea9e" data-name="ICONS EXPORT" xmlns="http://www.w3.org/2000/svg" width="32" height="32" viewBox="0 0 32 32"><title>calculator</title><path d="M25,20V6a2,2,0,0,0-2-2H9A2,2,0,0,0,7,6V26a2,2,0,0,0,2,2H23a2,2,0,0,0,2-2V25h0a1,1,0,0,1,2,0h0V26a4,4,0,0,1-4,4H9a4,4,0,0,1-4-4V6A4,4,0,0,1,9,2H23a4,4,0,0,1,4,4V20ZM23,7H9v4H23ZM10.5,13A1.5,1.5,0,1,0,12,14.5,1.5,1.5,0,0,0,10.5,13Zm0,5A1.5,1.5,0,1,0,12,19.5,1.5,1.5,0,0,0,10.5,18Zm0,5A1.5,1.5,0,1,0,12,24.5,1.5,1.5,0,0,0,10.5,23ZM16,13a1.5,1.5,0,1,0,1.5,1.5A1.5,1.5,0,0,0,16,13Zm0,5a1.5,1.5,0,1,0,1.5,1.5A1.5,1.5,0,0,0,16,18Zm0,5a1.5,1.5,0,1,0,1.5,1.5A1.5,1.5,0,0,0,16,23Zm5.5-10A1.5,1.5,0,1,0,23,14.5,1.5,1.5,0,0,0,21.5,13Zm0,5A1.5,1.5,0,1,0,23,19.5,1.5,1.5,0,0,0,21.5,18Zm0,5A1.5,1.5,0,1,0,23,24.5,1.5,1.5,0,0,0,21.5,23Z"/></svg>