<svg id="a8a37fd1-0554-42fa-b4cd-c3c68e3fd391" data-name="ICONS EXPORT" xmlns="http://www.w3.org/2000/svg" width="32" height="32" viewBox="0 0 32 32"><path d="M25.8,23.23l-.47,2.27a2.86,2.86,0,0,1-1.85,2.08,14.85,14.85,0,0,1-4.22.62A14,14,0,0,1,11.68,26l1.06-1.69a12.1,12.1,0,0,0,10.12,1.39.87.87,0,0,0,.51-.59L23.8,23l-4-1.32c-.06,0-.17.09-.24.18-.77,1-1.36,1.49-2,1.59-1.34.21-4.36-1-6.24-2.86s-3.08-4.9-2.86-6.24c.1-.61.58-1.22,1.58-2h0a.5.5,0,0,0,.18-.24L9,8.2l-2.05.43a.9.9,0,0,0-.61.56C5.53,11.81,5,17,10,22a1,1,0,0,1-1.42,1.42h0C2.8,17.72,3.48,11.67,4.4,8.57a2.89,2.89,0,0,1,2.1-1.9l2.29-.48a1.64,1.64,0,0,1,2,1.07l1.43,4.28A2.25,2.25,0,0,1,11.27,14a3.6,3.6,0,0,0-.79.73,8.24,8.24,0,0,0,6.76,6.76A3.81,3.81,0,0,0,18,20.7h0a2.24,2.24,0,0,1,2.47-.86l4.28,1.42A1.63,1.63,0,0,1,25.8,23.23ZM15.9,11.08a6,6,0,0,1,5,5,1,1,0,0,0,1,.85h.15a1,1,0,0,0,.84-1.14,7.93,7.93,0,0,0-6.71-6.7,1,1,0,1,0-.29,2Zm7.59-2.57a11.9,11.9,0,0,0-6.7-3.36,1,1,0,1,0-.3,2,10,10,0,0,1,8.39,8.38,1,1,0,0,0,1,.85H26a1,1,0,0,0,.84-1.14A11.94,11.94,0,0,0,23.49,8.51Z"/></svg>