<svg id="714cfd45-1a8c-4c8a-827c-c79677248ac1" data-name="ICONS EXPORT" xmlns="http://www.w3.org/2000/svg" width="32" height="32" viewBox="0 0 32 32"><title>camera</title><path d="M16,11a6,6,0,1,0,6,6A6,6,0,0,0,16,11Zm0,10a4,4,0,1,1,4-4A4,4,0,0,1,16,21Zm12-5V12a2,2,0,0,0-2-2H21C20,10,19.49,9,19.15,8.31,18.7,7.34,18.46,7,18,7H14c-.46,0-.7.34-1.15,1.31C12.51,9,12.05,10,11,10H6a2,2,0,0,0-2,2V23a2,2,0,0,0,2,2H26a2,2,0,0,0,2-2V19a1,1,0,0,1,2,0v4a4,4,0,0,1-4,4H6a4,4,0,0,1-4-4V12A4,4,0,0,1,6,8h4.76c.09-.14.2-.38.28-.54C11.47,6.54,12.19,5,14,5h4c1.81,0,2.53,1.54,3,2.46.08.16.19.4.28.54H26a4,4,0,0,1,4,4v4Z"/></svg>