<svg id="077c0ecd-ab56-4508-b2a8-97e125173a6b" data-name="ICONS EXPORT" xmlns="http://www.w3.org/2000/svg" width="32" height="32" viewBox="0 0 32 32"><title>camera-strikethrough</title><path d="M29.71,28.29a1,1,0,0,1,0,1.42,1,1,0,0,1-1.42,0l-26-26A1,1,0,0,1,3.71,2.29Zm-12-5.55L16,21a4,4,0,0,1-4-4l-1.74-1.74A5.86,5.86,0,0,0,10,17a6,6,0,0,0,6,6A5.86,5.86,0,0,0,17.74,22.74ZM16,11l6,6A6,6,0,0,0,16,11ZM26,8H21.24c-.09-.14-.2-.38-.28-.54C20.53,6.54,19.81,5,18,5H14a2.81,2.81,0,0,0-2.47,1.53L13,8c.36-.73.6-1,1-1h4c.46,0,.7.34,1.15,1.31C19.49,9,20,10,21,10h5a2,2,0,0,1,2,2v4h2V12A4,4,0,0,0,26,8ZM6,25a2,2,0,0,1-2-2V12a2,2,0,0,1,1.18-1.82L3.72,8.72A4,4,0,0,0,2,12V23a4,4,0,0,0,4,4H22l-2-2Zm23-6A1,1,0,0,0,28,20h0V23l1.64,1.64A3.9,3.9,0,0,0,30,23V20h0A1,1,0,0,0,29,19Z"/></svg>