<svg id="1d004831-50a7-42a6-bffc-61e506492571" data-name="ICONS EXPORT" xmlns="http://www.w3.org/2000/svg" width="32" height="32" viewBox="0 0 32 32"><title>car-accesories</title><path d="M11,18.5A1.5,1.5,0,1,1,9.5,17,1.5,1.5,0,0,1,11,18.5ZM22.5,17A1.5,1.5,0,1,0,24,18.5,1.5,1.5,0,0,0,22.5,17ZM29,16v5a3,3,0,0,1-2,2.82V27a1,1,0,0,1-1,1H24a1,1,0,0,1-1-1V24H9v3a1,1,0,0,1-1,1H6a1,1,0,0,1-1-1V23.82A3,3,0,0,1,3,21V16a3,3,0,0,1,2.17-2.87L6.59,6.74A3.61,3.61,0,0,1,10,4H22a3.61,3.61,0,0,1,3.41,2.74l1.42,6.39A3,3,0,0,1,29,16ZM7.25,13h9.34l-2.3-2.29a1,1,0,0,1,1.42-1.42L19.41,13h5.34L23.46,7.17A1.64,1.64,0,0,0,22,6H10A1.64,1.64,0,0,0,8.54,7.17ZM27,16a1,1,0,0,0-1-1H6a1,1,0,0,0-1,1v5a1,1,0,0,0,1,1H26a1,1,0,0,0,1-1Z"/></svg>