<svg id="ffee1759-18b4-44d2-8298-aa1b6f15c6bc" data-name="ICONS EXPORT" xmlns="http://www.w3.org/2000/svg" width="32" height="32" viewBox="0 0 32 32"><title>car</title><path d="M27,15H26c-.9,0-2-1.39-3-2.74C21.4,10.26,19.63,8,17,8H12c-2.08,0-3.3,2.13-4.37,4-.8,1.41-1.71,3-2.63,3a3,3,0,0,0-3,3v2a3,3,0,0,0,3,3h.14a4,4,0,0,0,7.72,0H16a1,1,0,0,0,0-2H12.86a4,4,0,0,0-7.72,0H5a1,1,0,0,1-1-1V18a1,1,0,0,1,1-1H27a1,1,0,0,1,1,1v2a1,1,0,0,1-1,1h-.14a4,4,0,1,0,0,2H27a3,3,0,0,0,3-3V18A3,3,0,0,0,27,15ZM9,20a2,2,0,1,1-2,2A2,2,0,0,1,9,20Zm12.38-6.51c.41.53.82,1,1.23,1.51H14V10h3C18.66,10,20,11.78,21.38,13.49ZM9.37,13c.8-1.41,1.71-3,2.63-3v5H8.12A23,23,0,0,0,9.37,13ZM23,24a2,2,0,1,1,2-2A2,2,0,0,1,23,24Z"/></svg>