<svg id="70aab830-8a68-4668-87be-ff95a5478b99" data-name="ICONS EXPORT" xmlns="http://www.w3.org/2000/svg" width="32" height="32" viewBox="0 0 32 32"><title>card-cvv</title><path d="M22,12a8,8,0,1,0,8,8A8,8,0,0,0,22,12Zm0,14a6,6,0,1,1,6-6A6,6,0,0,1,22,26ZM11.05,18H5a1,1,0,0,1-1-1V10H24V7a3,3,0,0,0-3-3H5A3,3,0,0,0,2,7V17a3,3,0,0,0,3,3h6.05a1,1,0,0,0,0-2ZM4,7A1,1,0,0,1,5,6H21a1,1,0,0,1,1,1V8H4ZM18.85,18h.73v4h-1V19.19l-.38.21-.47-.79Zm2.84,3.1h1.36V22H20.27v-.74l1.39-1.51a1.07,1.07,0,0,0,.35-.66c0-.2-.14-.31-.38-.31a.44.44,0,0,0-.32.11,1.2,1.2,0,0,0-.19.46l-.92-.25a2.55,2.55,0,0,1,.21-.58,1.21,1.21,0,0,1,.49-.46,1.65,1.65,0,0,1,.75-.16,1.36,1.36,0,0,1,1,.34,1.18,1.18,0,0,1,.37.88,1.56,1.56,0,0,1-.46,1.07Zm4.12-1.23a1.16,1.16,0,0,1,.4.89,1.23,1.23,0,0,1-.5,1,1.51,1.51,0,0,1-.95.32,1.48,1.48,0,0,1-1-.33,1.69,1.69,0,0,1-.3-.36,3,3,0,0,1-.2-.56l.92-.24a1.69,1.69,0,0,0,.16.4.43.43,0,0,0,.39.2.45.45,0,0,0,.48-.47c0-.29-.16-.42-.5-.42h-.38V19.5h.38a.51.51,0,0,0,.28-.06.31.31,0,0,0,.14-.3c0-.24-.13-.36-.4-.36a.51.51,0,0,0-.28.07,1.9,1.9,0,0,0-.31.32l-.79-.43a2,2,0,0,1,.43-.53,1.43,1.43,0,0,1,1-.31,1.47,1.47,0,0,1,.92.29,1.14,1.14,0,0,1,.45.93A1.06,1.06,0,0,1,25.81,19.87Z"/></svg>