<svg id="7ca9ea3a-cb64-490f-9011-cf042b1881ac" data-name="ICONS EXPORT" xmlns="http://www.w3.org/2000/svg" width="32" height="32" viewBox="0 0 32 32"><title>cash-in</title><path d="M27,11H21.74a7,7,0,0,0-11.48,0H5a2,2,0,0,0-2,2V27a2,2,0,0,0,2,2H27a2,2,0,0,0,2-2V24H27v3H5V13H9.29A7.27,7.27,0,0,0,9,15a7,7,0,0,0,.68,3H8v2H24V18H22.32A7,7,0,0,0,23,15a7.27,7.27,0,0,0-.29-2H27v6.05h0a1,1,0,0,0,2,0h0V13A2,2,0,0,0,27,11ZM12,18A5,5,0,1,1,20,18ZM8,9V5a1,1,0,0,1,2,0V9A1,1,0,0,1,8,9ZM22,9V5a1,1,0,0,1,2,0V9a1,1,0,0,1-2,0ZM15,5V3a1,1,0,0,1,2,0V5a1,1,0,0,1-2,0Z"/></svg>