<svg id="459c1102-40c1-4cad-966c-5365b404366a" data-name="ICONS EXPORT" xmlns="http://www.w3.org/2000/svg" width="32" height="32" viewBox="0 0 32 32"><title>cash-out-atm</title><path d="M27,3H5A2,2,0,0,0,3,5v5a2,2,0,0,0,2,2H7V27a2,2,0,0,0,2,2H23a2,2,0,0,0,2-2V12h2a2,2,0,0,0,2-2V5A2,2,0,0,0,27,3ZM9,27V9H23V27ZM27,10H25V9h1V7H6V9H7v1H5V5H27ZM16,12a6,6,0,1,0,6,6A6,6,0,0,0,16,12Zm0,10a4,4,0,1,1,4-4A4,4,0,0,1,16,22Zm2.31-4.74.74,0L19,18.49l-.59,0A1.81,1.81,0,0,1,17,20.05l-.06,0-.21-1.18a1.56,1.56,0,0,0,.5-.23.73.73,0,0,0,.26-.61.84.84,0,0,0-.2-.59.5.5,0,0,0-.38-.19.3.3,0,0,0-.21.08,1.85,1.85,0,0,0-.3.66l-.16.51c-.27.89-.7,1.34-1.3,1.34a1.15,1.15,0,0,1-.85-.37,1.57,1.57,0,0,1-.45-.94l-.69,0L13,17.26l.59,0a2.14,2.14,0,0,1,.29-.7,1.84,1.84,0,0,1,.66-.57L15,17a2.19,2.19,0,0,0-.34.32.8.8,0,0,0-.17.54.73.73,0,0,0,.16.51.41.41,0,0,0,.3.15q.24,0,.42-.6l.16-.53a2.38,2.38,0,0,1,.69-1.24A1.07,1.07,0,0,1,16.9,16a1.32,1.32,0,0,1,.9.37A1.68,1.68,0,0,1,18.31,17.26Z"/></svg>