<svg id="891ef022-19e3-431d-b16f-bf7e0c1e2a62" data-name="ICONS EXPORT" xmlns="http://www.w3.org/2000/svg" width="32" height="32" viewBox="0 0 32 32"><title>cash</title><path d="M2,8V24H17.05a1,1,0,0,0,0-2H7.9A5,5,0,0,0,4,18.1V13.9A5,5,0,0,0,7.9,10H24.1A5,5,0,0,0,28,13.9v4.2A5,5,0,0,0,24.1,22H22v2h8V8ZM5.82,22H4V20.18A3,3,0,0,1,5.82,22ZM4,11.82V10H5.82A3,3,0,0,1,4,11.82ZM26.18,10H28v1.82A3,3,0,0,1,26.18,10Zm0,12A3,3,0,0,1,28,20.18V22ZM16,11c-2.21,0-4,2.24-4,5s1.79,5,4,5,4-2.24,4-5S18.21,11,16,11Zm0,8c-1.08,0-2-1.37-2-3s.92-3,2-3,2,1.37,2,3S17.08,19,16,19Z"/></svg>