<svg id="eaecf6c2-435f-41ce-ae1e-3c718d2d35da" data-name="ICONS EXPORT" xmlns="http://www.w3.org/2000/svg" width="32" height="32" viewBox="0 0 32 32"><title>chat</title><path d="M30,14v7a4,4,0,0,1-4,4v4a1,1,0,0,1-.62.92A.84.84,0,0,1,25,30a1,1,0,0,1-.71-.29L19.59,25H15a4,4,0,0,1-4-4A1,1,0,0,1,13,21h0A2,2,0,0,0,15,23h5a1,1,0,0,1,.71.29L24,26.59V24a1,1,0,0,1,1-1h1a2,2,0,0,0,2-2V14a2,2,0,0,0-2-2H23V10h3A4,4,0,0,1,30,14ZM12.41,17l-4.7,4.71A1,1,0,0,1,7,22a.84.84,0,0,1-.38-.08A1,1,0,0,1,6,21V17a4,4,0,0,1-4-4V6A4,4,0,0,1,6,2H17a4,4,0,0,1,4,4v7a4,4,0,0,1-4,4ZM12,15h5a2,2,0,0,0,2-2V6a2,2,0,0,0-2-2H6A2,2,0,0,0,4,6v7a2,2,0,0,0,2,2H7a1,1,0,0,1,1,1v2.59l3.29-3.3A1,1,0,0,1,12,15Z"/></svg>