<svg id="1ce92a24-993f-4df7-ba8c-8f0b55be8acc" data-name="ICONS EXPORT" xmlns="http://www.w3.org/2000/svg" width="32" height="32" viewBox="0 0 32 32"><title>city</title><path d="M26,21a1,1,0,0,1-1,1H22a1,1,0,0,1,0-2h3A1,1,0,0,1,26,21Zm-1,3H22a1,1,0,0,0,0,2h3a1,1,0,0,0,0-2Zm5-8v5.05h0a1,1,0,0,1-2,0h0V18H21a2,2,0,0,0-2,2v8h9V26h2v4H2V19h8V8h2V6a2,2,0,0,1,2-2h1V2a1,1,0,0,1,2,0V4h1a2,2,0,0,1,2,2V8h2v8ZM14,8h4V6H14ZM10,21H4v7H6V23H8v5h2Zm10-4.86V10H12V28h5V20A4,4,0,0,1,20,16.14ZM17,12H15a1,1,0,0,0,0,2h2a1,1,0,0,0,0-2Z"/></svg>