<svg id="8393dd2e-e111-4ffe-9d93-a050704b7333" data-name="ICONS EXPORT" xmlns="http://www.w3.org/2000/svg" width="32" height="32" viewBox="0 0 32 32"><title>clothes</title><path d="M29.37,12.93,25,14.7l-.38,5.37-2-.14.43-6a1,1,0,0,1,.63-.86l4.19-1.67L26.76,7.15A3.09,3.09,0,0,0,24,5H20.9a5,5,0,0,1-9.8,0H8A3.09,3.09,0,0,0,5.24,7.15L4.18,11.4l4.19,1.67a1,1,0,0,1,.63.86l.78,11A2.3,2.3,0,0,0,12,27h8a2.3,2.3,0,0,0,2.22-2.06l.07-1h0a1,1,0,1,1,2,.14h0l-.07,1A4.28,4.28,0,0,1,20,29H12a4.28,4.28,0,0,1-4.21-3.92L7.05,14.7,2.63,12.93A1,1,0,0,1,2,11.76L3.3,6.67A5,5,0,0,1,8,3h4a1,1,0,0,1,1,1,3,3,0,0,0,6,0,1,1,0,0,1,1-1h4a5,5,0,0,1,4.7,3.67L30,11.76A1,1,0,0,1,29.37,12.93Z"/></svg>