<svg id="f245c104-bb00-4c48-b132-08cd0b8b908f" data-name="ICONS EXPORT" xmlns="http://www.w3.org/2000/svg" width="32" height="32" viewBox="0 0 32 32"><title>cog</title><path d="M16,11a5,5,0,1,0,5,5A5,5,0,0,0,16,11Zm0,8a3,3,0,1,1,3-3A3,3,0,0,1,16,19Zm11-3a11.16,11.16,0,0,0-.17-1.89l2.53-2.3-.23-.63A13.72,13.72,0,0,0,26.75,7l-.43-.52L23.05,7.57a11,11,0,0,0-3.27-1.9l-.73-3.34-.66-.11a12.81,12.81,0,0,0-4.78,0L13,2.33l-.73,3.34A11,11,0,0,0,9,7.57L5.68,6.52,5.25,7a13.72,13.72,0,0,0-2.38,4.14l-.23.63,2.53,2.3a10.59,10.59,0,0,0,0,3.78l-2.53,2.3.23.63A13.72,13.72,0,0,0,5.25,25l.43.52L9,24.43a11,11,0,0,0,3.27,1.9L13,29.67l.66.11a13.09,13.09,0,0,0,4.78,0l.66-.11.73-3.34a11,11,0,0,0,3.27-1.9l3.27,1.05.43-.52a13.72,13.72,0,0,0,2.38-4.14l.23-.63-2.53-2.3A11.16,11.16,0,0,0,27,16Zm0,4.75a12.45,12.45,0,0,1-1.38,2.41l-3.07-1-.43.4a9.09,9.09,0,0,1-3.5,2l-.56.17-.68,3.13a10.78,10.78,0,0,1-2.78,0l-.68-3.13-.56-.17a9.09,9.09,0,0,1-3.5-2l-.43-.4-3.07,1A12.45,12.45,0,0,1,5,20.75l2.38-2.16L7.24,18a8.62,8.62,0,0,1,0-4l.13-.57L5,11.25A12.45,12.45,0,0,1,6.37,8.84l3.07,1,.43-.4a9.09,9.09,0,0,1,3.5-2l.56-.17.68-3.13a10.78,10.78,0,0,1,2.78,0l.68,3.13.56.17a9.09,9.09,0,0,1,3.5,2l.43.4,3.07-1A12.45,12.45,0,0,1,27,11.25l-2.38,2.16.13.57a8.62,8.62,0,0,1,0,4l-.13.57Z"/></svg>