<svg version="1.1" id="Layer_1" xmlns="http://www.w3.org/2000/svg" xmlns:xlink="http://www.w3.org/1999/xlink" x="0px" y="0px"
	 width="32px" height="32px" viewBox="0 0 32 32" style="enable-background:new 0 0 32 32;" xml:space="preserve">
  <g id="copy">
    <path id="Shape" d="M20,8H6c-1.1,0-2,0.9-2,2v18c0,1.1,0.9,2,2,2h14c1.1,0,2-0.9,2-2V10C22,8.9,21.1,8,20,8z M20,28H6V10h14V28z
      M8,14c0-0.6,0.4-1,1-1h8c0.6,0,1,0.4,1,1s-0.4,1-1,1H9C8.4,15,8,14.6,8,14z M24.9,24c-0.5-0.1-0.9-0.5-0.9-1s0.4-0.9,0.9-1l0.1,0
      h1V4H12v2h-2V4c0-1.1,0.8-1.9,1.9-2L12,2h14c1.1,0,1.9,0.8,2,1.9L28,4v18c0,1.1-0.8,1.9-1.9,2L26,24h-1L24.9,24z M17,17
      c0.6,0,1,0.4,1,1s-0.4,1-1,1H9c-0.6,0-1-0.4-1-1s0.4-1,1-1H17z"/>
  </g>
</svg>
