<svg id="0f7a4ca6-559d-4c63-95d1-2c22c04a6596" data-name="ICONS EXPORT" xmlns="http://www.w3.org/2000/svg" width="32" height="32" viewBox="0 0 32 32"><title>dashboard</title><path d="M13,3H5A2,2,0,0,0,3,5V17a2,2,0,0,0,2,2h8a2,2,0,0,0,2-2V5A2,2,0,0,0,13,3Zm0,14H5V5h8ZM27,3H19a2,2,0,0,0-2,2V9a2,2,0,0,0,2,2h8a2,2,0,0,0,2-2V5A2,2,0,0,0,27,3Zm0,6H19V5h8ZM13,21H5a2,2,0,0,0-2,2v4a2,2,0,0,0,2,2h8a2,2,0,0,0,2-2V23A2,2,0,0,0,13,21Zm0,6H5V23h8ZM29,15v6H27V15H19V27h8V26h0a1,1,0,0,1,2,0h0V27a2,2,0,0,1-2,2H19a2,2,0,0,1-2-2V15a2,2,0,0,1,2-2h8A2,2,0,0,1,29,15Z"/></svg>