<svg id="c2f334fe-eac3-4ddd-b3d8-30994df7c8d3" data-name="ICONS EXPORT" xmlns="http://www.w3.org/2000/svg" width="32" height="32" viewBox="0 0 32 32"><title>dashboard-alt</title><path d="M12,4H6A2,2,0,0,0,4,6v6a2,2,0,0,0,2,2h6a2,2,0,0,0,2-2V6A2,2,0,0,0,12,4Zm0,8H6V6h6ZM26,4H20a2,2,0,0,0-2,2v6a2,2,0,0,0,2,2h6a2,2,0,0,0,2-2V6A2,2,0,0,0,26,4Zm0,8H20V6h6Zm2,8v2H26V20H20v6h6V25h0a1,1,0,0,1,2,0h0V26a2,2,0,0,1-2,2H20a2,2,0,0,1-2-2V20a2,2,0,0,1,2-2h6A2,2,0,0,1,28,20ZM12,18H6a2,2,0,0,0-2,2v6a2,2,0,0,0,2,2h6a2,2,0,0,0,2-2V20A2,2,0,0,0,12,18Zm0,8H6V20h6Z"/></svg>