<svg id="85e917dd-9bc6-45ba-90be-8255842773e5" data-name="ICONS EXPORT" xmlns="http://www.w3.org/2000/svg" width="32" height="32" viewBox="0 0 32 32"><title>dog</title><path d="M28,18V7a4,4,0,0,0-8,0H12A4,4,0,0,0,4,7V23a6,6,0,0,0,6,6,5.92,5.92,0,0,0,2.76-.67,4,4,0,0,0,6.48,0A5.92,5.92,0,0,0,22,29a6,6,0,0,0,6-6,1,1,0,0,0-2,0,4,4,0,0,1-6.83,2.83l-1.76-1.76,1.81-1.81a2.76,2.76,0,0,0,0-3.93A2.8,2.8,0,0,0,16,17.81a2.8,2.8,0,0,0-3.22.52,2.73,2.73,0,0,0-.82,2,2.78,2.78,0,0,0,.81,2l1.82,1.81-1.76,1.76A4,4,0,0,1,6,23V13.44A3.91,3.91,0,0,0,8,14a4,4,0,0,0,4-4V9H22V7a2,2,0,0,1,4,0V18ZM14.19,20.84a.75.75,0,0,1-.23-.55.76.76,0,0,1,.23-.55.77.77,0,0,1,1.1,0l.71.71.71-.71a.78.78,0,0,1,1.1,0,.76.76,0,0,1,.23.55.79.79,0,0,1-.23.56L16,22.66ZM16,25.49l1.64,1.63a2,2,0,0,1-3.28,0ZM10,10a2,2,0,0,1-4,0V7a2,2,0,0,1,4,0Zm.5,5A1.5,1.5,0,1,1,9,16.5,1.5,1.5,0,0,1,10.5,15ZM23,16.5A1.5,1.5,0,1,1,21.5,15,1.5,1.5,0,0,1,23,16.5Z"/></svg>