<svg id="80371a11-cfda-4638-a425-7b27e465de25" data-name="ICONS EXPORT" xmlns="http://www.w3.org/2000/svg" width="32" height="32" viewBox="0 0 32 32"><title>drinks</title><path d="M25,13h0a.92.92,0,0,0-.1-.45,1,1,0,0,0-1.34-.44A6.77,6.77,0,0,1,20,13a6.77,6.77,0,0,1-3.55-.89A8.72,8.72,0,0,0,12,11a8.92,8.92,0,0,0-2.9.43A31.53,31.53,0,0,1,10.69,5H21.31c.24.69.64,1.88,1,3.25l1.94-.5a35.4,35.4,0,0,0-1.31-4.12L22.68,3H9.32l-.25.63A30.4,30.4,0,0,0,7,13v.06H7a9,9,0,0,0,8,8.87V27H12a1,1,0,0,0,0,2h8a1,1,0,0,0,0-2H17V21.94A9,9,0,0,0,25,13ZM9,13.61A6.47,6.47,0,0,1,12,13a6.77,6.77,0,0,1,3.55.89A8.72,8.72,0,0,0,20,15a9.12,9.12,0,0,0,2.81-.4A7,7,0,0,1,9,13.61Z"/></svg>