<svg id="a8bd4379-c149-4b9f-b0a3-47056c17a788" data-name="ICONS EXPORT" xmlns="http://www.w3.org/2000/svg" width="32" height="32" viewBox="0 0 32 32"><title>edit</title><path d="M27,18v7a4,4,0,0,1-4,4H7a4,4,0,0,1-4-4V9A4,4,0,0,1,7,5h7a1,1,0,0,1,0,2H7A2,2,0,0,0,5,9V25a2,2,0,0,0,2,2H23a2,2,0,0,0,2-2V18a1,1,0,0,1,2,0Zm.71-8.29-11,11a1,1,0,0,1-.51.27l-5,1L11,22a1,1,0,0,1-.71-.29A1,1,0,0,1,10,20.8l1-5a1,1,0,0,1,.27-.51l11-11a3.74,3.74,0,0,1,5.42,0A3.73,3.73,0,0,1,27.71,9.71Zm-3.62.79L21.5,7.91l-8.58,8.58-.65,3.24,3.24-.65Zm2.2-4.79a1.72,1.72,0,0,0-2.59,0l-.79.79L25.5,9.09l.79-.8A1.71,1.71,0,0,0,26.29,5.71Z"/></svg>