<svg id="19a709fa-cd17-4def-a1f8-48957de77b03" data-name="ICONS EXPORT" xmlns="http://www.w3.org/2000/svg" width="32" height="32" viewBox="0 0 32 32"><title>electronics</title><path d="M26,20V4H6V26a2,2,0,0,0,2,2H24a2,2,0,0,0,2-2V24h0a1,1,0,0,1,2,0h0V26a4,4,0,0,1-4,4H8a4,4,0,0,1-4-4V2H28V20ZM16,21a1,1,0,1,0-1-1A1,1,0,0,0,16,21Zm0-7a6,6,0,1,1-6,6A6,6,0,0,1,16,14Zm-4,6a4,4,0,1,0,4-4A4,4,0,0,0,12,20Zm4-7a3.5,3.5,0,1,1,3.5-3.5A3.5,3.5,0,0,1,16,13Zm0-2a1.5,1.5,0,1,0-1.5-1.5A1.5,1.5,0,0,0,16,11Z"/></svg>