<svg id="0037c6fc-a22f-4223-9d85-bee30de35ef9" data-name="ICONS EXPORT" xmlns="http://www.w3.org/2000/svg" width="32" height="32" viewBox="0 0 32 32"><title>flight-landing</title><path d="M30,29a1,1,0,0,1-1,1H3a1,1,0,0,1,0-2H29A1,1,0,0,1,30,29ZM5.77,15l10.4,6,1-1.73-10.4-6A2,2,0,0,1,6,10.58l3.5-6.06,1.15.66L10,9.84a1,1,0,0,0,.49,1l4.33,2.5A1,1,0,0,0,16.2,13l4.5-7.79,1.15.66-1.44,10a1,1,0,0,0,.49,1l4.33,2.5A2,2,0,0,1,24.75,23a2,2,0,0,1-1.52-.2l-1.78-1h0a1,1,0,0,0-1.32.38,1,1,0,0,0,.33,1.33h0l1.78,1a3.92,3.92,0,0,0,2,.54,3.67,3.67,0,0,0,1-.14,4,4,0,0,0,2.43-1.86,4,4,0,0,0-1.46-5.46l-3.75-2.16,1.44-10a1,1,0,0,0-.49-1L20.83,3a1,1,0,0,0-1.36.36L15,11.12,12.09,9.46l.67-4.67a1,1,0,0,0-.49-1l-2.6-1.5a1,1,0,0,0-1.36.36l-4,6.93A4,4,0,0,0,5.77,15Z"/></svg>