<svg id="fa272d3c-9587-4c74-9fac-fc90b903877c" data-name="ICONS EXPORT" xmlns="http://www.w3.org/2000/svg" width="32" height="32" viewBox="0 0 32 32"><title>flight-taking-off</title><path d="M30,29a1,1,0,0,1-1,1H3a1,1,0,0,1,0-2H29A1,1,0,0,1,30,29ZM6.11,21.41a3.93,3.93,0,0,0,2.43,1.86,3.67,3.67,0,0,0,1,.14,4,4,0,0,0,2-.53l10.39-6-1-1.74-10.39,6a2,2,0,0,1-1.52.2,2,2,0,0,1-1.21-.93l-3.5-6.06,1.15-.66,3.7,2.91a1,1,0,0,0,1.11.08l4.33-2.5A1,1,0,0,0,15,12.81L10.5,5l1.15-.66,7.93,6.24a1,1,0,0,0,1.12.08L25,8.18A1.94,1.94,0,0,1,26.54,8,2,2,0,0,1,27,11.64l-1.78,1h0A1,1,0,0,0,24.93,14a1,1,0,0,0,1.32.38h0l1.78-1a4,4,0,0,0,1.46-5.47,4,4,0,0,0-2.43-1.86,3.92,3.92,0,0,0-3,.4L20.28,8.61,12.35,2.37a1,1,0,0,0-1.12-.08l-2.6,1.5a1,1,0,0,0-.36,1.36l4.5,7.8L9.89,14.61,6.19,11.7a1,1,0,0,0-1.12-.08l-2.6,1.5a1,1,0,0,0-.36,1.36Z"/></svg>