<svg id="833fe454-49cb-4c4e-8c15-6d3978cf9105" data-name="ICONS EXPORT" xmlns="http://www.w3.org/2000/svg" width="32" height="32" viewBox="0 0 32 32"><title>flight</title><path d="M24.41,12a1.05,1.05,0,0,0-.21.75L26.75,23.8A3,3,0,0,1,26,26.41L24.41,28a1.63,1.63,0,0,1-2.73-.5l-1.25-2.73h0a1,1,0,1,1,1.82-.83h0l1.06,2.33L24.59,25a1.05,1.05,0,0,0,.21-.75l-2.55-11A3,3,0,0,1,23,10.59l4.29-4.3a1.12,1.12,0,0,0-1.58-1.58L21.41,9a3,3,0,0,1-2.61.75L7.75,7.2A1.07,1.07,0,0,0,7,7.41L5.73,8.69l8.77,4a1.63,1.63,0,0,1,.5,2.73l-5.29,5.3A1,1,0,0,1,8.8,21l-4.47-.89-.55.54,3.59,1.44A1,1,0,0,1,8,23v1H9a1,1,0,0,1,.93.63l1.44,3.59.54-.55L11,23.2a1,1,0,0,1,.27-.91L16.59,17a1.71,1.71,0,0,1,1.5-.51,1.69,1.69,0,0,1,1.23,1l1.32,2.89-1.82.83-1.13-2.49-4.6,4.6L14,27.8a1,1,0,0,1-.27.91l-2,2A1,1,0,0,1,11,31l-.2,0a1,1,0,0,1-.73-.61L8.32,26H7a1,1,0,0,1-1-1V23.68L1.63,21.93a1,1,0,0,1-.34-1.64l2-2A1,1,0,0,1,4.2,18l4.47.89,4.6-4.6-8.77-4A1.63,1.63,0,0,1,4,7.59L5.59,6A3,3,0,0,1,8.2,5.25L19.25,7.8A1.05,1.05,0,0,0,20,7.59l4.29-4.3a3.14,3.14,0,0,1,4.42,0,3.14,3.14,0,0,1,0,4.42Z"/></svg>