<svg id="79800c71-6b92-4228-8786-030ea6893872" data-name="ICONS EXPORT" xmlns="http://www.w3.org/2000/svg" width="32" height="32" viewBox="0 0 32 32"><title>food</title><path d="M22,9a5.74,5.74,0,0,0-3.55,1.17,4.43,4.43,0,0,1-1.46.72,4.75,4.75,0,0,1,.9-2.41c1-1.34,2.76-2.18,5.23-2.49a1,1,0,1,0-.24-2,9.53,9.53,0,0,0-6.28,2.9A6,6,0,0,0,11,3a5.87,5.87,0,0,0-2.94.78A6,6,0,0,0,14,9a6.26,6.26,0,0,0,1.45-.18A7,7,0,0,0,15,10.88a4.41,4.41,0,0,1-1.44-.71A5.74,5.74,0,0,0,10,9c-2.86,0-5.14,2.28-5.8,5.82h0a1,1,0,0,0,2,.36h0C6.54,13.16,7.75,11,10,11a3.82,3.82,0,0,1,2.45.83A5.74,5.74,0,0,0,16,13h0a5.74,5.74,0,0,0,3.55-1.17A3.82,3.82,0,0,1,22,11c2.35,0,4,2.47,4,6,0,4.87-4.8,10.89-6,11a3,3,0,0,1-1.55-.39A4.85,4.85,0,0,0,16,27a4.85,4.85,0,0,0-2.45.61A3,3,0,0,1,12,28c-1.07-.1-4.83-4.67-5.8-9.21l-2,.42C5.21,23.67,9.38,30,12,30a4.85,4.85,0,0,0,2.45-.61,3.28,3.28,0,0,1,3.1,0A4.85,4.85,0,0,0,20,30c2.83,0,8-7.64,8-13C28,12.29,25.53,9,22,9ZM14,7a4,4,0,0,1-3.44-2L11,5a4,4,0,0,1,3.44,2Z"/></svg>