<svg id="39f4f9ca-320d-406f-96c7-4bfa972c6148" data-name="ICONS EXPORT" xmlns="http://www.w3.org/2000/svg" width="32" height="32" viewBox="0 0 32 32"><title>gas</title><path d="M14,6H11A3,3,0,0,0,8,9v5h9V9A3,3,0,0,0,14,6Zm1,6H10V9a1,1,0,0,1,1-1h3a1,1,0,0,1,1,1Zm12.94-1.6,0-.08a2.93,2.93,0,0,0-.79-1.44l-3.5-3.5a1,1,0,1,0-1.41,1.41l1.5,1.51A3,3,0,0,0,26,13.82V25a1,1,0,0,1-2,0V17a1,1,0,0,0-1-1H21V5a3,3,0,0,0-3-3H7A3,3,0,0,0,4,5V18.05H4a1,1,0,0,0,2,0H6V5A1,1,0,0,1,7,4H18a1,1,0,0,1,1,1V28H6V22H4v8H21V18h1v7a3,3,0,0,0,6,0V11A3,3,0,0,0,27.94,10.4ZM25,12a1,1,0,0,1,0-2,1,1,0,0,1,.82.47.61.61,0,0,1,.1.14A1,1,0,0,1,25,12Z"/></svg>