<svg id="71b85ea2-e1b6-4f4c-b628-bfe3733598e8" data-name="ICONS EXPORT" xmlns="http://www.w3.org/2000/svg" width="32" height="32" viewBox="0 0 32 32"><title>gift</title><path d="M27,14a2,2,0,0,0-2-2H22.12A6.06,6.06,0,0,0,24,8a3.89,3.89,0,0,0-4-4,4.14,4.14,0,0,0-3.69,2.33C15.61,4.55,14.3,3,12,3A3.89,3.89,0,0,0,8,7a7.65,7.65,0,0,0,2.21,5H7a2,2,0,0,0-2,2v4H6v9a2,2,0,0,0,2,2H24a2,2,0,0,0,2-2V18h1Zm-2,2H17V14h8ZM20,6a1.88,1.88,0,0,1,2,2c0,.15-.06,3.55-5,4C17,11.44,17.21,6,20,6ZM12,5C15,5,15,10,15,10V12c-4.81-.48-5-4.47-5-4.95A1.89,1.89,0,0,1,12,5ZM7,14h8v2H7Zm1,4h7v9H8Zm16,9H17V18h7Z"/></svg>