<svg id="6dc52b9b-02bd-4cd7-97cd-28224d6a5b19" data-name="ICONS EXPORT" xmlns="http://www.w3.org/2000/svg" width="32" height="32" viewBox="0 0 32 32"><title>hamburguer</title><path d="M30,19a4,4,0,0,0-3-3.86v-2.4A2,2,0,0,0,28,11c0-3.92-5.27-7-12-7S4,7.08,4,11a2,2,0,0,0,1,1.74v2.4a4,4,0,0,0,0,7.72V24a4,4,0,0,0,4,4H23a4,4,0,0,0,4-4V22.86A4,4,0,0,0,30,19ZM7,13H25v2H24a1,1,0,0,0-1,1,3,3,0,0,1-6,0,1,1,0,0,0-1-1H7Zm9-7c5.42,0,10,2.29,10,5H6C6,8.29,10.58,6,16,6Zm7,20H9a2,2,0,0,1-2-2V23H25v1A2,2,0,0,1,23,26Zm3-5H6a2,2,0,0,1,0-4h9.1a5,5,0,0,0,9.8,0H26a2,2,0,0,1,0,4ZM17,9a1,1,0,1,1-1-1A1,1,0,0,1,17,9Zm4,0a1,1,0,1,1-1-1A1,1,0,0,1,21,9ZM13,9a1,1,0,1,1-1-1A1,1,0,0,1,13,9Z"/></svg>