<svg id="37793276-1b24-4e94-b01a-cae66aebc55d" data-name="ICONS EXPORT" xmlns="http://www.w3.org/2000/svg" width="32" height="32" viewBox="0 0 32 32"><title>heart</title><path d="M30,12a8,8,0,0,1-2.34,5.66l-.5.5-1.42-1.42.5-.5A5.93,5.93,0,0,0,28,12a6,6,0,0,0-6-6c-2.42,0-5,1.54-5,4.41a1,1,0,0,1-2,0C15,7.54,12.42,6,10,6a6,6,0,0,0-6,6,5.93,5.93,0,0,0,1.76,4.24L16,26.49l6.74-6.75h0a1,1,0,0,1,1.42,1.42h0l-7.44,7.45a1,1,0,0,1-1.42,0L4.34,17.66A8,8,0,0,1,10,4a7.27,7.27,0,0,1,6,3,7.27,7.27,0,0,1,6-3A8,8,0,0,1,30,12Z"/></svg>