<svg id="a4b7ffca-b11c-481b-a454-a4939b54003c" data-name="ICONS EXPORT" xmlns="http://www.w3.org/2000/svg" width="32" height="32" viewBox="0 0 32 32"><title>hide-pass</title><path d="M21,16l-5-5A5,5,0,0,1,21,16ZM11,16a5,5,0,0,0,5,5Zm17.76-.65c-5-5.88-10.24-8.21-15.41-7l1.72,1.72c.31,0,.62-.07.93-.07,3.49,0,7.08,2,10.67,6a25.57,25.57,0,0,1-2.9,2.77L25.2,20.2a30.52,30.52,0,0,0,3.56-3.55A1,1,0,0,0,28.76,15.35ZM16,22c-3.49,0-7.08-2-10.67-6a25.57,25.57,0,0,1,2.9-2.77L6.81,11.81a29,29,0,0,0-3.57,3.54,1,1,0,0,0,0,1.3C7.42,21.53,11.71,24,16,24a11.09,11.09,0,0,0,2.67-.33l-1.74-1.74C16.62,22,16.31,22,16,22ZM6.71,5.29A1,1,0,0,0,5.29,6.71l20,20a1,1,0,0,0,1.42,0,1,1,0,0,0,0-1.42Z"/></svg>