<svg id="0c0bea0f-2ec2-43c5-9381-0cb2e2cab3ce" data-name="ICONS EXPORT" xmlns="http://www.w3.org/2000/svg" width="32" height="32" viewBox="0 0 32 32"><title>hotel-alt</title><path d="M10,13H8V11h2Zm0,2H8v2h2Zm4-4H12v2h2Zm0,4H12v2h2Zm-4,4H8v2h2Zm4,0H12v2h2ZM30,29a1,1,0,0,1-1,1H3a1,1,0,0,1,0-2H4V8A1,1,0,0,1,5,7H8V3A1,1,0,0,1,9,2H27a1,1,0,0,1,1,1V28h1A1,1,0,0,1,30,29ZM18,13h8V11H18Zm0,4h8V15H18ZM10,7h7a1,1,0,0,1,1,1V9h8V4H10ZM6,28H8V24a1,1,0,0,1,1-1h4a1,1,0,0,1,1,1v4h2V25h2v3h8V19H18v2a1,1,0,0,1-2,0V9H6Zm6-3H10v3h2Z"/></svg>