<svg id="ad13e284-ac1c-4659-b64b-624c81a303ec" data-name="ICONS EXPORT" xmlns="http://www.w3.org/2000/svg" width="32" height="32" viewBox="0 0 32 32"><title>hotel-alt-2</title><path d="M10,8H8V6h2Zm0,2H8v2h2Zm0,4H8v2h2Zm4-8H12V8h2Zm0,4H12v2h2Zm0,4H12v2h2Zm4-8H16V8h2Zm0,4H16v2h2Zm0,4H16v2h2ZM30,29a1,1,0,0,1-1,1H3a1,1,0,0,1,0-2H4V3A1,1,0,0,1,5,2H21a1,1,0,0,1,1,1V9h5a1,1,0,0,1,1,1V28h1A1,1,0,0,1,30,29ZM26,15H22v2h4Zm-4-4v2h4V11ZM6,28H8V21a1,1,0,0,1,1-1h8a1,1,0,0,1,1,1v7h2V26a1,1,0,0,1,2,0v2h4V19H22v2H20V4H6Zm10-6H10v6h6Z"/></svg>