<svg id="073d1b9b-3d8a-4582-a4f1-6b5771feda7a" data-name="ICONS EXPORT" xmlns="http://www.w3.org/2000/svg" width="32" height="32" viewBox="0 0 32 32"><title>hotel-room-alt</title><path d="M28,15.18V10a3,3,0,0,0-3-3H7a3,3,0,0,0-3,3v5.18A3,3,0,0,0,2,18v7H4v2a1,1,0,0,0,2,0V25H26v2a1,1,0,0,0,2,0V25h2V18A3,3,0,0,0,28,15.18ZM14,15H8V14a1,1,0,0,1,1-1h4a1,1,0,0,1,1,1Zm10,0H18V14a1,1,0,0,1,1-1h4a1,1,0,0,1,1,1ZM6,10A1,1,0,0,1,7,9H25a1,1,0,0,1,1,1v4a3,3,0,0,0-3-3H19a3,3,0,0,0-3,3,3,3,0,0,0-3-3H9a3,3,0,0,0-3,3ZM5,17H27a1,1,0,0,1,1,1v1H4V18A1,1,0,0,1,5,17ZM4,23V21H28v2Z"/></svg>