<svg id="db7e8e04-1cda-4374-9e8e-b05c3493f56a" data-name="ICONS EXPORT" xmlns="http://www.w3.org/2000/svg" width="32" height="32" viewBox="0 0 32 32"><title>hotel</title><path d="M27,23H6a10,10,0,0,1,18.68-5,1,1,0,1,0,1.73-1A12,12,0,0,0,4,23v.18A3,3,0,0,0,5,29H27a3,3,0,0,0,0-6Zm0,4H5a1,1,0,0,1,0-2H27a1,1,0,0,1,0,2ZM16,10a3,3,0,1,0-3-3A3,3,0,0,0,16,10Zm0-4a1,1,0,1,1-1,1A1,1,0,0,1,16,6Zm5,9.54a8.65,8.65,0,0,1,1.32,1.1,1,1,0,0,1-.7,1.71,1,1,0,0,1-.71-.29,7.69,7.69,0,0,0-1-.87A7,7,0,0,0,16,16a1,1,0,0,1,0-2A8.93,8.93,0,0,1,21,15.54Z"/></svg>