<svg id="04e20d64-7eda-4168-bd93-586402bf3ff2" data-name="ICONS EXPORT" xmlns="http://www.w3.org/2000/svg" width="32" height="32" viewBox="0 0 32 32"><title>house</title><path d="M25.93,11.59l-1.57-1.41L23,11.67l1.56,1.4A1.71,1.71,0,0,1,25,14V27H20V20a2,2,0,0,0-2-2H14a2,2,0,0,0-2,2v7H7V14a1.71,1.71,0,0,1,.41-.93l8.52-7.66a.17.17,0,0,1,.14,0l3.45,3.11h0l0,0h0a1,1,0,0,0,1.32-1.47h0l0,0h0l-3.45-3.1a2.11,2.11,0,0,0-2.82,0L6.07,11.59A3.53,3.53,0,0,0,5,14V27a2,2,0,0,0,2,2H25a2,2,0,0,0,2-2V14A3.53,3.53,0,0,0,25.93,11.59ZM14,20h4v7H14Z"/></svg>