<svg id="d5683033-92dd-44dc-b343-ac57a15b14ef" data-name="ICONS EXPORT" xmlns="http://www.w3.org/2000/svg" width="32" height="32" viewBox="0 0 32 32"><title>key</title><path d="M21,9a2,2,0,1,1-2,2A2,2,0,0,1,21,9Zm7.94,1.93A9,9,0,0,0,11,12a8.89,8.89,0,0,0,.3,2.29L3,22.59V29h7V27h2V25h2V23h1.41l2.3-2.3A8.89,8.89,0,0,0,20,21a9,9,0,0,0,7.79-4.5l-1.73-1a7,7,0,0,1-8.31,3.12l-.59-.2L14.59,21H12v2H10v2H8v2H5V23.41l8.58-8.57-.2-.59a7,7,0,1,1,13.55-3.18h0s0,.06,0,.09h0A1,1,0,0,0,28,12a1,1,0,0,0,.93-1.07Z"/></svg>