<svg id="c5b19efd-c19a-41e2-aed4-28f0c1dfdfd5" data-name="ICONS EXPORT" xmlns="http://www.w3.org/2000/svg" width="32" height="32" viewBox="0 0 32 32"><title>laptop</title><path d="M29,20H21a2.41,2.41,0,0,0-2.39,1.55c-.22.44-.23.45-.61.45H14c-.38,0-.39,0-.61-.45A2.41,2.41,0,0,0,11,20H6V9A2,2,0,0,1,8,7H24a2,2,0,0,1,2,2v8a1,1,0,0,0,2,0V9a4,4,0,0,0-4-4H8A4,4,0,0,0,4,9V20H3a1,1,0,0,0-1,1v2a4,4,0,0,0,4,4H26a4,4,0,0,0,4-4V21A1,1,0,0,0,29,20Zm-1,3a2,2,0,0,1-2,2H6a2,2,0,0,1-2-2V22h7c.38,0,.39,0,.61.45A2.41,2.41,0,0,0,14,24h4a2.41,2.41,0,0,0,2.39-1.55c.22-.44.23-.45.61-.45h7ZM12.71,9.29a1,1,0,0,1,0,1.42l-3,3a1,1,0,0,1-1.42,0,1,1,0,0,1,0-1.42l3-3A1,1,0,0,1,12.71,9.29Z"/></svg>