<svg id="87ec9c44-3f8f-48a4-85ff-45672a6e9c84" data-name="ICONS EXPORT" xmlns="http://www.w3.org/2000/svg" width="32" height="32" viewBox="0 0 32 32"><title>map</title><path d="M29,16V4a1,1,0,0,0-1.35-.94L20,5.93,12.35,3.06A1.2,1.2,0,0,0,12,3h0a1.2,1.2,0,0,0-.33.06l-8,3A1,1,0,0,0,3,7V28a1,1,0,0,0,1,1,1,1,0,0,0,.35-.06L12,26.07l7.65,2.87A1.2,1.2,0,0,0,20,29h0a1.2,1.2,0,0,0,.33-.06l8-3A1,1,0,0,0,29,25V21h0a1,1,0,0,0-2,0h0v3.36l-6,2.25V7.69l6-2.25V16ZM13,5.44l6,2.25V26.56l-6-2.25ZM5,7.69l6-2.25V24.31L5,26.56Z"/></svg>