<svg id="4e3c3a9c-756d-41de-a476-89e3143757ce" data-name="ICONS EXPORT" xmlns="http://www.w3.org/2000/svg" width="32" height="32" viewBox="0 0 32 32"><title>medal</title><path d="M20.71,16.29a1,1,0,0,1,0,1.42l-5,5a1,1,0,0,1-1.42,0l-3-3a1,1,0,0,1,1.42-1.42L15,20.59l4.29-4.3A1,1,0,0,1,20.71,16.29ZM28.92,4.38l-4.11,9.89A9.94,9.94,0,0,1,26,19a10.17,10.17,0,0,1-.23,2.11l-1.95-.42A8.16,8.16,0,0,0,24,19a8,8,0,1,0-2,5.24h0a1,1,0,1,1,1.5,1.31h0A10,10,0,0,1,7.19,14.27L3.08,4.38a1,1,0,0,1,.09-.93A1,1,0,0,1,4,3h8a1,1,0,0,1,.92.62L15.18,9c.27,0,.54,0,.82,0s.55,0,.82,0l2.26-5.42A1,1,0,0,1,20,3h8a1,1,0,0,1,.83.45A1,1,0,0,1,28.92,4.38Zm-15.75,5L11.33,5H5.5l3.06,7.34A10.1,10.1,0,0,1,13.17,9.41ZM26.5,5H20.67L18.83,9.41a10.1,10.1,0,0,1,4.61,2.93Z"/></svg>