<svg id="58d35068-59ca-425e-89c3-dd9e90d51ab0" data-name="ICONS EXPORT" xmlns="http://www.w3.org/2000/svg" width="32" height="32" viewBox="0 0 32 32"><title>medicine</title><path d="M29,20V14a4,4,0,0,0-4-4H23V7a4,4,0,0,0-4-4H13A4,4,0,0,0,9,7v3H7a4,4,0,0,0-4,4V25a4,4,0,0,0,4,4H25a4,4,0,0,0,4-4V24h0a1,1,0,0,0-2,0h0V25a2,2,0,0,1-2,2H7a2,2,0,0,1-2-2V14a2,2,0,0,1,2-2H25a2,2,0,0,1,2,2v6ZM11,7a2,2,0,0,1,2-2h6a2,2,0,0,1,2,2v3H11Zm4,16V21H13a1,1,0,0,1,0-2h2V17a1,1,0,0,1,2,0v2h2a1,1,0,0,1,0,2H17v2a1,1,0,0,1-2,0Z"/></svg>