<svg id="40620576-6cf3-41b4-bfff-6b3b7e5b1f56" data-name="ICONS EXPORT" xmlns="http://www.w3.org/2000/svg" width="32" height="32" viewBox="0 0 32 32"><title>message</title><path d="M9,12a1,1,0,0,1,1-1H22a1,1,0,0,1,0,2H10A1,1,0,0,1,9,12Zm1,5H22a1,1,0,0,0,0-2H10a1,1,0,0,0,0,2Zm0,4h6a1,1,0,0,0,0-2H10a1,1,0,0,0,0,2ZM16,2A14,14,0,0,0,2,16a14.47,14.47,0,0,0,.17,2.15l2-.3A12,12,0,1,1,10,26.4a1,1,0,0,0-.75-.1L4.41,27.59l1-3.94h0a1,1,0,0,0-1.92-.51h0L2,28.74A1,1,0,0,0,3,30a1.15,1.15,0,0,0,.26,0l6.13-1.64A13.86,13.86,0,0,0,16,30,14,14,0,0,0,16,2Z"/></svg>