<svg id="4c195cf5-552f-4c59-b54c-77bb01ec4dd9" data-name="ICONS EXPORT" xmlns="http://www.w3.org/2000/svg" width="32" height="32" viewBox="0 0 32 32"><title>motorbike</title><path d="M19,9h-.78a3.17,3.17,0,0,0,.6-1H21a1,1,0,0,0,0-2H18.82a3,3,0,0,0-5.64,0H11a1,1,0,0,0,0,2h2.18a3.17,3.17,0,0,0,.6,1H13a3,3,0,0,0-3,3v9a1,1,0,0,0,2,0V12a1,1,0,0,1,1-1h6a1,1,0,0,1,1,1v9a1,1,0,0,1-1,1V21a3,3,0,0,0-6,0v4a3,3,0,0,0,6,0V24a3,3,0,0,0,3-3V12A3,3,0,0,0,19,9ZM16,6a1,1,0,1,1-1,1A1,1,0,0,1,16,6Zm1,19a1,1,0,0,1-2,0V21a1,1,0,0,1,2,0Zm1-11a1,1,0,1,1,1-1A1,1,0,0,1,18,14Z"/></svg>