<svg id="fc6e96ef-8fb1-481d-ad07-0504ff0a8797" data-name="ICONS EXPORT" xmlns="http://www.w3.org/2000/svg" width="32" height="32" viewBox="0 0 32 32"><path d="M15,4a3,3,0,0,1,3,3H12A3,3,0,0,1,15,4Zm7.12,17.8h-.54a3.14,3.14,0,0,0-1.4.28,1.93,1.93,0,0,0-.83.82A2.94,2.94,0,0,0,19,24.21a1.56,1.56,0,0,0,1.69,1.72h.87Zm-.85-5.28A6.4,6.4,0,0,1,26.73,19,6.31,6.31,0,0,1,28,22.86a5,5,0,0,1-1.44,3.77A4.66,4.66,0,0,1,23,27.78H20.58a3.77,3.77,0,0,1-1.92-.5,3.17,3.17,0,0,1-1.61-3,4.23,4.23,0,0,1,1.16-3.07A4.71,4.71,0,0,1,21.75,20h2.6l-.76,6,.19,0c1.48-.19,2.23-1.2,2.23-3A4.75,4.75,0,0,0,25.1,20a4.39,4.39,0,0,0-3.76-1.6,5.83,5.83,0,0,0-4.48,1.7,5.35,5.35,0,0,0-1.39,3.78,4.87,4.87,0,0,0,1.72,3.94A6.41,6.41,0,0,0,21.32,29a13.26,13.26,0,0,0,2-.14c.53-.08,1.28-.24,2.34-.51l.65,1.75a18,18,0,0,1-2.48.58,17.84,17.84,0,0,1-2.59.17,7.73,7.73,0,0,1-5.94-2.2,6.78,6.78,0,0,1-1.76-4.76,7.79,7.79,0,0,1,.94-3.78,6.62,6.62,0,0,1,2.89-2.73A8.94,8.94,0,0,1,21.27,16.52ZM25,15V8a1,1,0,0,0-1-1H20A5,5,0,0,0,10,7H6A1,1,0,0,0,5,8V25a4,4,0,0,0,4,4h3.05a1,1,0,0,0,0-2H9a2,2,0,0,1-2-2V9h3v3a1,1,0,0,0,2,0V9h6v3a1,1,0,0,0,2,0V9h3v6Z" style="fill-rule:evenodd"/></svg>