<svg id="e2e57af3-c8c3-40a6-8bc8-3a61a362cdbe" data-name="ICONS EXPORT" xmlns="http://www.w3.org/2000/svg" width="32" height="32" viewBox="0 0 32 32"><title>orange-sad</title><path d="M19.61,6.56A4.74,4.74,0,0,0,21,3V2H20a4.63,4.63,0,0,0-4,1.9A4.63,4.63,0,0,0,12,2H11V3a4.74,4.74,0,0,0,1.39,3.56,12,12,0,1,0,7.22,0Zm-.79-2.38a2.53,2.53,0,0,1-1.58,1.57A2.55,2.55,0,0,1,18.82,4.18ZM14.76,5.75a2.53,2.53,0,0,1-1.58-1.57A2.55,2.55,0,0,1,14.76,5.75ZM16,28a10,10,0,0,1-.19-20h.39A10,10,0,0,1,16,28Zm5.52-5.92-1.84.79a4,4,0,0,0-7.36,0l-1.84-.79a6,6,0,0,1,11,0ZM12,18a3,3,0,0,1-3-3h2a1,1,0,0,0,2,0h2A3,3,0,0,1,12,18Zm9-3h2a3,3,0,0,1-6,0h2a1,1,0,0,0,2,0Z"/></svg>