<svg id="06878a7a-3069-4898-a794-d23f649d39aa" data-name="ICONS EXPORT" xmlns="http://www.w3.org/2000/svg" width="32" height="32" viewBox="0 0 32 32"><title>orange-happy</title><path d="M19.61,6.56A4.74,4.74,0,0,0,21,3V2H20a4.63,4.63,0,0,0-4,1.9A4.63,4.63,0,0,0,12,2H11V3a4.74,4.74,0,0,0,1.39,3.56,12,12,0,1,0,7.22,0Zm-.79-2.38a2.53,2.53,0,0,1-1.58,1.57A2.55,2.55,0,0,1,18.82,4.18ZM14.76,5.75a2.53,2.53,0,0,1-1.58-1.57A2.55,2.55,0,0,1,14.76,5.75ZM16,28a10,10,0,0,1-.19-20h.39A10,10,0,0,1,16,28Zm-6-8a6,6,0,0,0,12,0V19H10Zm9.87,1a4,4,0,0,1-7.74,0Zm-9.16-4.29L9.29,15.29,12,12.59l2.71,2.7-1.42,1.42L12,15.41ZM20,12.59l2.71,2.7-1.42,1.42L20,15.41l-1.29,1.3-1.42-1.42Z"/></svg>