<svg id="84fb2b88-5142-4993-ad11-1ebabbe64d34" data-name="ICONS EXPORT" xmlns="http://www.w3.org/2000/svg" width="32" height="32" viewBox="0 0 32 32"><title>order-first</title><path d="M30,16a13.88,13.88,0,0,1-2.47,7.93l-1.64-1.14a12,12,0,1,0-3.1,3.1h0a1,1,0,1,1,1.13,1.64h0A14,14,0,1,1,30,16ZM15,23a1,1,0,0,0,1-1V10a1,1,0,0,0-.62-.92,1,1,0,0,0-1.09.21l-3,3a1,1,0,0,0,1.42,1.42L14,12.41V22A1,1,0,0,0,15,23ZM19.5,9A1.5,1.5,0,1,0,21,10.5,1.5,1.5,0,0,0,19.5,9ZM19,13a1,1,0,0,0,0,2h1a1,1,0,0,0,0-2Z"/></svg>