<svg id="626ac05b-0d44-4954-aa86-24ef63a4a73d" data-name="ICONS EXPORT" xmlns="http://www.w3.org/2000/svg" width="32" height="32" viewBox="0 0 32 32"><title>pets</title><path d="M29,21a4,4,0,0,1-4,4,4,4,0,1,1-7.45-2L9,14.45A4,4,0,1,1,7,7a4,4,0,1,1,7.45,2l6.26,6.26-1.42,1.42L12.41,9.83a1,1,0,0,1,0-1.42A2,2,0,0,0,13,7,2,2,0,0,0,9,7a2,2,0,0,0,.21.87A1,1,0,0,1,9,9a1,1,0,0,1-1.14.19A2,2,0,1,0,7,13a2,2,0,0,0,1.41-.59,1,1,0,0,1,1.42,0l9.76,9.76a1,1,0,0,1,0,1.42A2,2,0,0,0,19,25a2,2,0,0,0,4,0,2,2,0,0,0-.21-.87A1,1,0,0,1,23,23a1,1,0,0,1,1.14-.19A2,2,0,1,0,25,19a2,2,0,0,0-1.41.59h0a1,1,0,0,1-1.42-1.42h0A4,4,0,0,1,29,21Z"/></svg>