<svg id="da99bc79-fa09-4e39-a95c-50f46a4736b2" data-name="ICONS EXPORT" xmlns="http://www.w3.org/2000/svg" width="32" height="32" viewBox="0 0 32 32"><title>piano</title><path d="M28,19H5V11c0-.61.21-6,6-6,3.3,0,4.12,1.46,5.15,3.31C17.32,10.4,18.78,13,24,13a3.16,3.16,0,0,1,3,3,1,1,0,0,0,2,0,5.14,5.14,0,0,0-5-5C20,11,19,9.3,17.9,7.33S15.47,3,11,3C4.67,3,3,8.23,3,11V25a4,4,0,0,0,4,4H25a4,4,0,0,0,4-4V20A1,1,0,0,0,28,19Zm-1,6a2,2,0,0,1-2,2H7a2,2,0,0,1-2-2V21H7v2a1,1,0,0,0,2,0V21h2v2a1,1,0,0,0,2,0V21h2v2a1,1,0,0,0,2,0V21h2v2a1,1,0,0,0,2,0V21h2v2a1,1,0,0,0,2,0V21h2Z"/></svg>