<svg id="7c201f1d-a60b-46b9-ab99-f58272a11b29" data-name="ICONS EXPORT" xmlns="http://www.w3.org/2000/svg" width="32" height="32" viewBox="0 0 32 32"><title>qr-code</title><path d="M29,5V15H23a1,1,0,0,1,0-2H27V5H19V15H17V3H27A2,2,0,0,1,29,5ZM14,3H5A2,2,0,0,0,3,5v9a1,1,0,0,0,1,1H9.05a1,1,0,0,0,0-2H5V5h8V15h2V4A1,1,0,0,0,14,3ZM13,27H5V19H9.05a1,1,0,0,0,0-2H4a1,1,0,0,0-1,1v9a2,2,0,0,0,2,2h9a1,1,0,0,0,1-1V17H13Zm4,2h2V17H17ZM11,10V8a1,1,0,0,0-1-1H8A1,1,0,0,0,7,8v2a1,1,0,0,0,1,1h2A1,1,0,0,0,11,10Zm13,1a1,1,0,0,0,1-1V8a1,1,0,0,0-1-1H22a1,1,0,0,0-1,1v2a1,1,0,0,0,1,1ZM8,21a1,1,0,0,0-1,1v2a1,1,0,0,0,1,1h2a1,1,0,0,0,1-1V22a1,1,0,0,0-1-1ZM22,18h0a1,1,0,0,0-2,0h0V21a1,1,0,0,0,1,1h8V20H22ZM28,23H21a1,1,0,0,0,0,2H27v4h2V24A1,1,0,0,0,28,23Zm-4,6h2V26H24Z"/></svg>