<svg id="7aaf17d3-8cdb-4ea2-8014-fa353729b3e3" data-name="ICONS EXPORT" xmlns="http://www.w3.org/2000/svg" width="32" height="32" viewBox="0 0 32 32"><title>qr-code-scan</title><path d="M29,16a1,1,0,0,1-1,1H23v4H21V17H20v4H18V17H17v4H15V17H14v4H12V17H11v4H9V17H4a1,1,0,0,1,0-2H9V11h2v4h1V11h2v4h1V11h2v4h1V11h2v4h1V11h2v4h5A1,1,0,0,1,29,16Zm-1,4a1,1,0,0,0-1,1v4a2,2,0,0,1-2,2H21a1,1,0,0,0,0,2h4a4,4,0,0,0,4-4V21A1,1,0,0,0,28,20ZM25,3H21a1,1,0,0,0,0,2h4a2,2,0,0,1,2,2v4a1,1,0,0,0,2,0V7A4,4,0,0,0,25,3ZM4,12a1,1,0,0,0,1-1V7A2,2,0,0,1,7,5h4a1,1,0,0,0,0-2H7A4,4,0,0,0,3,7v4A1,1,0,0,0,4,12Zm7,15H7a2,2,0,0,1-2-2V21a1,1,0,0,0-2,0v4a4,4,0,0,0,4,4h4a1,1,0,0,0,0-2Z"/></svg>