<svg id="3eb43a3b-4f70-4777-b6c6-05842fcef072" data-name="ICONS EXPORT" xmlns="http://www.w3.org/2000/svg" width="32" height="32" viewBox="0 0 32 32"><title>refresh</title><path d="M29,14.92A1,1,0,0,1,28,16H28a1,1,0,0,1-1-.92A11,11,0,0,0,16,5a11.16,11.16,0,0,0-9.31,5H11a1,1,0,0,1,0,2H5a1.16,1.16,0,0,1-.18,0,1.17,1.17,0,0,1-.2-.05h0a.87.87,0,0,1-.1-.08.9.9,0,0,1-.2-.14,1.3,1.3,0,0,1-.1-.15,1.63,1.63,0,0,1-.11-.17,1.85,1.85,0,0,1,0-.23A.7.7,0,0,1,4,11V5A1,1,0,0,1,6,5V7.61a13,13,0,0,1,23,7.31Zm-1,5.71a1.63,1.63,0,0,0-.11-.17,1.3,1.3,0,0,0-.1-.15.9.9,0,0,0-.2-.14.39.39,0,0,0-.1-.08h0a.87.87,0,0,0-.19-.05,1.18,1.18,0,0,0-.2,0H21a1,1,0,0,0,0,2h4.3A11,11,0,0,1,5.05,16.92a1,1,0,0,0-2,.16,13,13,0,0,0,23,7.31V27a1,1,0,0,0,2,0V21a.7.7,0,0,0,0-.14A1.85,1.85,0,0,0,27.93,20.63Z"/></svg>