<svg id="e742dce6-e539-49d3-b5b1-c7bb0dc0da49" data-name="ICONS EXPORT" xmlns="http://www.w3.org/2000/svg" width="32" height="32" viewBox="0 0 32 32"><title>restaurant</title><path d="M13.19,15.55c1.18-2,.54-5.11-1.68-7.33C9,5.69,5.33,5.21,3.38,7.16a4.5,4.5,0,0,0-1.14,4,7.56,7.56,0,0,0,2.2,4.13A7.68,7.68,0,0,0,8.57,17.5a7.09,7.09,0,0,0,.9.07A4.45,4.45,0,0,0,11.76,17l10,10a1,1,0,0,0,.71.29,1,1,0,0,0,.71-.29,1,1,0,0,0,0-1.41Zm-4.31,0a5.67,5.67,0,0,1-3-1.64,5.67,5.67,0,0,1-1.64-3,2.56,2.56,0,0,1,.58-2.27A2.32,2.32,0,0,1,6.48,8,5.39,5.39,0,0,1,10.1,9.64c1.72,1.72,2.21,4.15,1.06,5.3A2.58,2.58,0,0,1,8.88,15.52ZM13.63,21a1,1,0,0,1,0,1.41L9,27a1,1,0,0,1-.71.29A1,1,0,0,1,7.62,27a1,1,0,0,1,0-1.41l4.6-4.6A1,1,0,0,1,13.63,21Zm15.91-8.84-4.95,4.95a3,3,0,0,1-4.24,0l-.71-.71-1.77,1.77-1.41-1.41,1.77-1.77-.71-.71a3,3,0,0,1,0-4.24L22.47,5a1,1,0,0,1,1.42,0,1,1,0,0,1,0,1.41l-4.95,5a1,1,0,0,0,0,1.42l.7.71L25.3,7.87a1,1,0,1,1,1.41,1.41l-5.65,5.66.7.71a1,1,0,0,0,1.42,0l4.95-5a1,1,0,1,1,1.41,1.41Z"/></svg>