<svg id="583ce6c9-23e1-4bef-9d74-5775831b4883" data-name="ICONS EXPORT" xmlns="http://www.w3.org/2000/svg" width="32" height="32" viewBox="0 0 32 32"><title>send</title><path d="M28.35,3.65a1.58,1.58,0,0,0-1.58-.35L6.7,8.77A1.38,1.38,0,0,0,5.55,10a1.36,1.36,0,0,0,1,1.36l9.18,4.18.08.05-1.71,5.13A1,1,0,0,0,15,22a1,1,0,0,0,.45-.11l2.92-1.46,2.31,5.07a1.37,1.37,0,0,0,1.26.95H22a1.38,1.38,0,0,0,1.19-1.15L28.7,5.23A1.58,1.58,0,0,0,28.35,3.65ZM8.94,10.24,24.63,6l-7.87,7.88a1.74,1.74,0,0,0-.26-.15ZM16.71,19l.43-1.3.4.88Zm5.05,4L18.32,15.5a1.74,1.74,0,0,0-.15-.26L26,7.37Zm-12-.77a1,1,0,0,1,0,1.42l-4,4a1,1,0,0,1-1.42,0,1,1,0,0,1,0-1.42l4-4A1,1,0,0,1,9.71,22.29Zm6,2a1,1,0,0,1,0,1.42l-2,2a1,1,0,0,1-1.42,0,1,1,0,0,1,0-1.42l2-2A1,1,0,0,1,15.71,24.29ZM4.29,19.71a1,1,0,0,1,0-1.42l2-2a1,1,0,0,1,1.42,1.42l-2,2a1,1,0,0,1-1.42,0Z"/></svg>