<svg id="56eb3c8e-430c-4a5e-b9fd-634f671d3bb0" data-name="ICONS EXPORT" xmlns="http://www.w3.org/2000/svg" width="32" height="32" viewBox="0 0 32 32"><title>share</title><path d="M23,21a4,4,0,0,0-2.8,1.15l-8.38-5a3.64,3.64,0,0,0,0-2.26l8.38-5A4,4,0,1,0,19,7a3.87,3.87,0,0,0,.18,1.13l-8.38,5a4,4,0,1,0,0,5.7l8.38,5A3.87,3.87,0,0,0,19,25a4,4,0,1,0,4-4ZM23,5a2,2,0,1,1-1.7,3V8h0A2,2,0,0,1,21,7,2,2,0,0,1,23,5ZM8,18a2,2,0,1,1,1.7-3v0h0A2,2,0,0,1,10,16a2,2,0,0,1-.29,1h0v0A2,2,0,0,1,8,18Zm15,9a2,2,0,0,1-2-2,2,2,0,0,1,.28-1h0v0A2,2,0,1,1,23,27Z"/></svg>