<svg id="ba74d91d-0279-4eaf-8677-6325662a0fc3" data-name="ICONS EXPORT" xmlns="http://www.w3.org/2000/svg" width="32" height="32" viewBox="0 0 32 32"><title>shield</title><path d="M20.71,12.29a1,1,0,0,1,0,1.42l-5,5a1,1,0,0,1-1.42,0l-3-3a1,1,0,0,1,1.42-1.42L15,16.59l4.29-4.3A1,1,0,0,1,20.71,12.29ZM29,6.94a1,1,0,0,0-.68-.89l-12-4a1,1,0,0,0-.64,0l-12,4A1,1,0,0,0,3,6.94c-1,17.53,12.5,22.94,12.64,23a1,1,0,0,0,.72,0A19.88,19.88,0,0,0,23,25.15l0,0a1,1,0,0,0-.08-1.37,1,1,0,0,0-1.41,0s0,.05,0,.07a19,19,0,0,1-5.48,4C14,27,4.44,21.87,5,7.73L16,4.05,27,7.73a22.76,22.76,0,0,1-2.89,12.6l1.72,1A25,25,0,0,0,29,6.94Z"/></svg>