<svg id="938fb702-1d1e-4913-9959-6d5be3e13ac8" data-name="ICONS EXPORT" xmlns="http://www.w3.org/2000/svg" width="32" height="32" viewBox="0 0 32 32"><title>shopping-cart</title><path d="M28.49,9.12l-1,6.09a4.91,4.91,0,0,1-4.42,4l-12.51.74A2.6,2.6,0,0,0,13,22H26a1,1,0,0,1,0,2H13a4.62,4.62,0,0,1-4.43-3.82L6.46,6.12C6.27,4.84,5.45,4,5,4H3A1,1,0,0,1,3,2H5C6.6,2,8.11,3.68,8.43,5.82l1.82,12.1L23,17.18a3,3,0,0,0,2.56-2.3l1-6.09a1.54,1.54,0,0,0-.31-1.27A1.52,1.52,0,0,0,25,7H13a1,1,0,0,1,0-2H25a3.59,3.59,0,0,1,2.74,1.22A3.55,3.55,0,0,1,28.49,9.12ZM12,26a2,2,0,1,0,2,2A2,2,0,0,0,12,26Zm13,0a2,2,0,1,0,2,2A2,2,0,0,0,25,26Z"/></svg>