<svg id="057e1f78-22a8-4985-baac-fc72680fd8dd" data-name="ICONS EXPORT" xmlns="http://www.w3.org/2000/svg" width="32" height="32" viewBox="0 0 32 32"><title>show-ticket</title><path d="M12,14v4a1,1,0,0,1-2,0V14a1,1,0,0,1,2,0Zm17,0a1,1,0,0,0,1-1V7a1,1,0,0,0-1-1H3A1,1,0,0,0,2,7v6a1,1,0,0,0,1,1,2,2,0,0,1,0,4,1,1,0,0,0-1,1v6a1,1,0,0,0,1,1H19.05a1,1,0,0,0,0-2H12V22a1,1,0,0,0-2,0v2H4V19.87a4,4,0,0,0,0-7.74V8h6v2a1,1,0,0,0,2,0V8H28v4.13a4,4,0,0,0,0,7.74V24H24v2h5a1,1,0,0,0,1-1V19a1,1,0,0,0-1-1,2,2,0,0,1,0-4Z"/></svg>