<svg id="38dd79fa-d062-4ee5-811a-591d370b850e" data-name="ICONS EXPORT" xmlns="http://www.w3.org/2000/svg" width="32" height="32" viewBox="0 0 32 32"><title>sports-tennis</title><path d="M16,2h-.21A14,14,0,0,0,2,15.83H2V16A14,14,0,0,0,23.93,27.53h0a1,1,0,1,0-1.13-1.64h0A11.9,11.9,0,0,1,17.05,28c0-.32-.05-.64-.05-.95A10,10,0,0,1,27,17c.31,0,.63,0,.95.05a11.9,11.9,0,0,1-2.06,5.74l1.64,1.14A14,14,0,0,0,16,2ZM15,4.05c0,.32.05.64.05,1A10,10,0,0,1,5,15c-.31,0-.63,0-1-.05A12,12,0,0,1,15,4.05ZM15,27c0,.32,0,.63.05.95h-.28A12,12,0,0,1,4.05,17c.32,0,.64.05,1,.05A12,12,0,0,0,17,5c0-.32,0-.63-.05-1h.28A12,12,0,0,1,28,15.05c-.32,0-.64-.05-.95-.05A12,12,0,0,0,15,27Z"/></svg>