<svg id="1ce47bad-9e6e-4279-99bd-0cc5248e5726" data-name="ICONS EXPORT" xmlns="http://www.w3.org/2000/svg" width="32" height="32" viewBox="0 0 32 32"><title>sports-basket</title><path d="M16,2a14,14,0,1,0,7.93,25.53h0a1,1,0,1,0-1.13-1.64h0a12.08,12.08,0,0,1-3.25,1.58C21.15,24.77,22,20.3,22,16s-.85-8.77-2.46-11.47A12,12,0,0,1,28,16a11.91,11.91,0,0,1-2.11,6.79l1.64,1.14A14,14,0,0,0,16,2ZM4,16A12,12,0,0,1,12.46,4.53C10.85,7.23,10,11.7,10,16s.85,8.77,2.46,11.47A12,12,0,0,1,4,16Zm16,0c0,7.43-2.33,12-4,12s-4-4.57-4-12S14.33,4,16,4,20,8.57,20,16Z"/></svg>