<svg id="bf3f66d2-ea11-4046-b40f-6e7e6e7411c8" data-name="ICONS EXPORT" xmlns="http://www.w3.org/2000/svg" width="32" height="32" viewBox="0 0 32 32"><title>store</title><path d="M29,12v0a.86.86,0,0,0,0-.17c0-.06,0-.12,0-.18L25.69,3H6.31L3.06,11.65c0,.06,0,.12,0,.18A1,1,0,0,0,3,12v0s0,0,0,0a4,4,0,0,0,2,3.37V25a4,4,0,0,0,4,4H23a4,4,0,0,0,4-4V15.44a4,4,0,0,0,2-3.37S29,12,29,12ZM7.69,5H24.31L27,12.14A2,2,0,0,1,23,12a1,1,0,0,0-2,0,2,2,0,0,1-4,0,1,1,0,0,0-2,0,2,2,0,0,1-4,0,1,1,0,0,0-2,0,2,2,0,0,1-4,.14ZM18,27H14V21h4Zm7-2a2,2,0,0,1-2,2H20V21a2,2,0,0,0-2-2H14a2,2,0,0,0-2,2v6H9a2,2,0,0,1-2-2V16a4,4,0,0,0,3-1.36,4,4,0,0,0,6,0,4,4,0,0,0,6,0A4,4,0,0,0,25,16Z"/></svg>