<svg id="6a176fb4-00e0-4af4-8bff-16c4962fe4f0" data-name="ICONS EXPORT" xmlns="http://www.w3.org/2000/svg" width="32" height="32" viewBox="0 0 32 32"><title>summary</title><path d="M27,14V8.59L20.41,2H7A2,2,0,0,0,5,4V28a2,2,0,0,0,2,2H25a2,2,0,0,0,2-2V19h0a1,1,0,0,0-2,0h0V28H7V4H19V8a2,2,0,0,0,2,2h4v4ZM21,5.41,23.59,8H21ZM14,24a1,1,0,0,1,0,2H10a1,1,0,0,1,0-2Zm8-2H10a1,1,0,0,1,0-2H22a1,1,0,0,1,0,2Zm1-5a1,1,0,0,1-1,1H10a1,1,0,0,1,0-2H22A1,1,0,0,1,23,17ZM9,13a1,1,0,0,1,1-1h2a1,1,0,0,1,0,2H10A1,1,0,0,1,9,13Zm7,1a1,1,0,0,1,0-2h4a1,1,0,0,1,0,2Z"/></svg>