<svg id="d8fd1818-ed4f-437d-b941-95f0cbdde5ed" data-name="ICONS EXPORT" xmlns="http://www.w3.org/2000/svg" width="32" height="32" viewBox="0 0 32 32"><title>sun</title><path d="M16,9a7,7,0,1,0,7,7A7,7,0,0,0,16,9Zm0,12a5,5,0,1,1,5-5A5,5,0,0,1,16,21ZM15,6V3a1,1,0,0,1,2,0V6a1,1,0,0,1-2,0Zm2,20v3a1,1,0,0,1-2,0V26a1,1,0,0,1,2,0ZM22.36,9.64a1,1,0,0,1,0-1.42L24.49,6.1A1,1,0,1,1,25.9,7.51L23.78,9.64a1,1,0,0,1-.71.29A1,1,0,0,1,22.36,9.64ZM9.64,22.36a1,1,0,0,1,0,1.42L7.51,25.9a1,1,0,0,1-.7.29,1,1,0,0,1-.71-.29,1,1,0,0,1,0-1.41l2.12-2.13A1,1,0,0,1,9.64,22.36ZM30,16a1,1,0,0,1-1,1H26a1,1,0,0,1,0-2h3A1,1,0,0,1,30,16ZM6,17H3a1,1,0,0,1,0-2H6a1,1,0,0,1,0,2Zm19.9,7.49a1,1,0,0,1,0,1.41,1,1,0,0,1-.71.29,1,1,0,0,1-.7-.29l-2.13-2.12a1,1,0,0,1,1.42-1.42ZM6.1,7.51A1,1,0,0,1,7.51,6.1L9.64,8.22a1,1,0,0,1,0,1.42,1,1,0,0,1-.71.29,1,1,0,0,1-.71-.29Z"/></svg>