<svg id="3ceca2a9-1016-43e8-8075-9319e2d378cf" data-name="ICONS EXPORT" xmlns="http://www.w3.org/2000/svg" width="32" height="32" viewBox="0 0 32 32"><title>system</title><path d="M28,14V8a2,2,0,0,0-2-2H6A2,2,0,0,0,4,8V24a2,2,0,0,0,2,2H26a2,2,0,0,0,2-2V19h0a1,1,0,0,1,2,0h0V24a4,4,0,0,1-4,4H6a4,4,0,0,1-4-4V8A4,4,0,0,1,6,4H26a4,4,0,0,1,4,4v6Zm-6.28,1L20,9.68a1,1,0,0,0-1.9,0L15,18.84,13,12.68a1,1,0,0,0-1.9,0L10.28,15H7a1,1,0,0,0,0,2h4a1,1,0,0,0,.95-.68l.05-.16,2.05,6.16a1,1,0,0,0,1.9,0L19,13.16l1.05,3.16A1,1,0,0,0,21,17h4a1,1,0,0,0,0-2Z"/></svg>