<svg id="cdf42a05-a137-411e-8aa0-6e1f2b4d1985" data-name="ICONS EXPORT" xmlns="http://www.w3.org/2000/svg" width="32" height="32" viewBox="0 0 32 32"><title>tag</title><path d="M29.75,18a4,4,0,0,1-1.16,2.83l-7.76,7.76a4,4,0,0,1-5.66,0L3,16.41A3.73,3.73,0,0,1,2,14V6A4,4,0,0,1,6,2h8a3.73,3.73,0,0,1,2.41,1l6.3,6.29-1.42,1.42L15,4.41A1.85,1.85,0,0,0,14,4H6A2,2,0,0,0,4,6v8a1.82,1.82,0,0,0,.41,1L16.59,27.17a2,2,0,0,0,2.82,0l7.76-7.76a2,2,0,0,0,0-2.82L26,15.41h0l0,0h0a1,1,0,0,1,1.4-1.4h0l0,0h0l1.18,1.17A4,4,0,0,1,29.75,18ZM7,9A2,2,0,1,0,9,7,2,2,0,0,0,7,9Z"/></svg>