<svg id="8057e771-1581-4fad-b832-ba06eb49009c" data-name="ICONS EXPORT" xmlns="http://www.w3.org/2000/svg" width="32" height="32" viewBox="0 0 32 32"><title>ticket</title><path d="M26,3V19.05h0a1,1,0,0,1-2,0h0V4.87l-1.45,1a1,1,0,0,1-1.1,0L19,4.2,16.55,5.83a1,1,0,0,1-1.1,0L13,4.2,10.55,5.83a1,1,0,0,1-1.1,0L8,4.87V27.13l1.45-1a1,1,0,0,1,1.1,0L13,27.8l2.45-1.63a1,1,0,0,1,1.1,0L19,27.8l2.45-1.63a1,1,0,0,1,1.1,0l1.45,1V24h2v5a1,1,0,0,1-.53.88,1,1,0,0,1-1-.05L22,28.2l-2.45,1.63a1,1,0,0,1-1.1,0L16,28.2l-2.45,1.63a1,1,0,0,1-1.1,0L10,28.2,7.55,29.83a1,1,0,0,1-1,.05A1,1,0,0,1,6,29V3a1,1,0,0,1,.53-.88,1,1,0,0,1,1,0L10,3.8l2.45-1.63a1,1,0,0,1,1.1,0L16,3.8l2.45-1.63a1,1,0,0,1,1.1,0L22,3.8l2.45-1.63a1,1,0,0,1,1,0A1,1,0,0,1,26,3Zm-5,7a1,1,0,0,0-1-1H11a1,1,0,0,0,0,2h9A1,1,0,0,0,21,10Zm-3,4a1,1,0,0,0-1-1H11a1,1,0,0,0,0,2h6A1,1,0,0,0,18,14Zm-7,6a1,1,0,0,0,0,2h4a1,1,0,0,0,0-2Z"/></svg>