<svg id="d0f0c37a-bbda-4b23-bf27-499132222375" data-name="ICONS EXPORT" xmlns="http://www.w3.org/2000/svg" width="32" height="32" viewBox="0 0 32 32"><title>tools</title><path d="M29,25a4,4,0,0,1-6.83,2.83l-9.1-9.11A7.71,7.71,0,0,1,11,19,8,8,0,0,1,3.54,8.12a1,1,0,0,1,.73-.62,1,1,0,0,1,.91.27l3.09,3.09,1.94-.65.67-2L8.25,4.91A1,1,0,0,1,8.08,4a1,1,0,0,1,.67-.66A7.86,7.86,0,0,1,11,3a8,8,0,0,1,8,8,7.71,7.71,0,0,1-.28,2.07L24,18.35l-1.42,1.41-5.71-5.71a1,1,0,0,1-.23-1A6.08,6.08,0,0,0,17,11a6,6,0,0,0-6.12-6l1.9,2.38a1,1,0,0,1,.17.94l-1,3a1,1,0,0,1-.63.63l-3,1a1,1,0,0,1-1-.24L5,10.44A5.25,5.25,0,0,0,5,11a6,6,0,0,0,6,6,6.08,6.08,0,0,0,2-.35,1,1,0,0,1,1,.23l9.54,9.53a2,2,0,0,0,2.82,0,2,2,0,0,0,0-2.82l-1.06-1.07h0a1,1,0,0,1,0-1.41,1,1,0,0,1,1.42,0h0l1.06,1.06A4,4,0,0,1,29,25Z"/></svg>