<svg id="b3d892c1-4da0-41c4-8691-c27b6a9129c3" data-name="ICONS EXPORT" xmlns="http://www.w3.org/2000/svg" width="32" height="32" viewBox="0 0 32 32"><title>toys</title><path d="M16,19a2,2,0,1,1-2,2A2,2,0,0,1,16,19Zm-5-3a1,1,0,1,0,1-1A1,1,0,0,0,11,16Zm9-1a1,1,0,1,0,1,1A1,1,0,0,0,20,15Zm9-7a5,5,0,0,0-5-5,5,5,0,0,0-4.35,2.57,12,12,0,0,0-7.3,0A5,5,0,0,0,8,3a5,5,0,0,0-2.93,9.05,12,12,0,0,0,18.6,14.18h0a1,1,0,1,0-1.28-1.54h0A10,10,0,0,1,7.26,12.14a1,1,0,0,0,.08-.8,1,1,0,0,0-.55-.6,3,3,0,1,1,4.06-3.61,1,1,0,0,0,.53.61,1,1,0,0,0,.81,0,10,10,0,0,1,7.62,0,1,1,0,0,0,.81,0,1,1,0,0,0,.53-.61A3,3,0,0,1,24,5a3,3,0,0,1,1.21,5.74,1,1,0,0,0-.55.6,1,1,0,0,0,.08.8,10,10,0,0,1,0,9.7l1.75,1a12,12,0,0,0,.43-10.76A5,5,0,0,0,29,8Z"/></svg>