<svg id="160fda21-852b-457a-8fd2-a7707c2373b0" data-name="ICONS EXPORT" xmlns="http://www.w3.org/2000/svg" width="32" height="32" viewBox="0 0 32 32"><title>truck</title><path d="M26,8H24a4,4,0,0,0-4-4H2V22a4,4,0,0,0,3.11,3.89,4,4,0,0,0,7.75.11H16a1,1,0,0,0,0-2H12.86a4,4,0,0,0-7.66-.17A2,2,0,0,1,4,22V6H20a2,2,0,0,1,2,2V18h6v4a2,2,0,0,1-1.2,1.83,4,4,0,1,0,.09,2.06A4,4,0,0,0,30,22V12A4,4,0,0,0,26,8ZM9,23a2,2,0,1,1-2,2A2,2,0,0,1,9,23Zm14,4a2,2,0,1,1,2-2A2,2,0,0,1,23,27Zm1-11V10h2a2,2,0,0,1,2,2v4Z"/></svg>