<svg id="1531001f-3eef-4437-aeda-af1f16c57656" data-name="ICONS EXPORT" xmlns="http://www.w3.org/2000/svg" width="32" height="32" viewBox="0 0 32 32"><title>truck-naranja</title><path d="M26,8H24a4,4,0,0,0-4-4H2V22a4,4,0,0,0,3.11,3.89,4,4,0,0,0,7.75.11H16a1,1,0,0,0,0-2H12.86a4,4,0,0,0-7.66-.17A2,2,0,0,1,4,22V6H20a2,2,0,0,1,2,2V18h6v4a2,2,0,0,1-1.2,1.83,4,4,0,1,0,.09,2.06A4,4,0,0,0,30,22V12A4,4,0,0,0,26,8ZM9,23a2,2,0,1,1-2,2A2,2,0,0,1,9,23Zm14,4a2,2,0,1,1,2-2A2,2,0,0,1,23,27Zm1-11V10h2a2,2,0,0,1,2,2v4Zm-7.8-6a.81.81,0,0,1,.8.82v7.09a.88.88,0,0,1,0,.16.8.8,0,0,1-.79.66.83.83,0,0,1-.72-.43L13,13.84a4.08,4.08,0,0,1-4,3.41V15.62a2.46,2.46,0,0,0,2.45-2.46V10.89h0a.82.82,0,0,1,.42-.79.78.78,0,0,1,.39-.1.83.83,0,0,1,.71.43l2.4,4.36v-4A.81.81,0,0,1,16.2,10Z"/></svg>