<svg id="1e41d57c-1a4c-476a-ae15-ceeec3ba64c3" data-name="ICONS EXPORT" xmlns="http://www.w3.org/2000/svg" width="32" height="32" viewBox="0 0 32 32"><title>videogames</title><path d="M13.5,16.5a1,1,0,0,1-1,1H11V19a1,1,0,0,1-2,0V17.5H7.5a1,1,0,0,1,0-2H9V14a1,1,0,0,1,2,0v1.5h1.5A1,1,0,0,1,13.5,16.5Zm6-1a1,1,0,1,0,1,1A1,1,0,0,0,19.5,15.5Zm5,0a1,1,0,1,0,1,1A1,1,0,0,0,24.5,15.5ZM22,13a1,1,0,1,0,1,1A1,1,0,0,0,22,13Zm0,5a1,1,0,1,0,1,1A1,1,0,0,0,22,18Zm8,3a7,7,0,0,1-7,7c-3.15,0-4.57-2.12-5.34-4H14.34c-.77,1.88-2.19,4-5.34,4a7,7,0,0,1-7-7A29.53,29.53,0,0,1,4.37,10.49,4.13,4.13,0,0,1,8,8h7V5a1,1,0,0,1,2,0V8h7a4.13,4.13,0,0,1,3.64,2.52C27.73,10.78,30,16.87,30,21Zm-2,0c0-3.77-2.21-9.72-2.23-9.78A2.13,2.13,0,0,0,24,10H8a2.13,2.13,0,0,0-1.77,1.22.14.14,0,0,1,0,.06A28,28,0,0,0,4,21a5,5,0,0,0,5,5c1.82,0,2.86-.93,3.71-3.33a1,1,0,0,1,.94-.67h4.7a1,1,0,0,1,.94.67C20.14,25.07,21.18,26,23,26A5,5,0,0,0,28,21Z"/></svg>