<svg id="cd56166f-1676-4f43-8e54-652f2dea133e" data-name="ICONS EXPORT" xmlns="http://www.w3.org/2000/svg" width="32" height="32" viewBox="0 0 32 32"><title>watch</title><path d="M17,11v4.59l1.71,1.7a1,1,0,0,1,0,1.42,1,1,0,0,1-1.42,0l-2-2A1,1,0,0,1,15,16V11a1,1,0,0,1,2,0Zm7.94,9.47h0A10.44,10.44,0,0,1,23,23.09l-1.45,4.33A4,4,0,0,1,18,30H14a4,4,0,0,1-3.58-2.58L9,23.11A10,10,0,0,1,9,8.89l1.44-4.31A4,4,0,0,1,14,2h4a4,4,0,0,1,3.58,2.58L23,8.89A10,10,0,0,1,26,16H24a8,8,0,1,0-.85,3.57h0a1,1,0,0,1,1.79.9ZM11.73,7a9.88,9.88,0,0,1,8.54,0l-.59-1.76A2,2,0,0,0,18,4H14a2,2,0,0,0-1.68,1.21ZM20.27,25a9.88,9.88,0,0,1-8.54,0l.59,1.76A2,2,0,0,0,14,28h4a2,2,0,0,0,1.68-1.21Z"/></svg>