<svg id="b621d143-cf31-44db-8e78-713135f2b5db" data-name="ICONS EXPORT" xmlns="http://www.w3.org/2000/svg" width="32" height="32" viewBox="0 0 32 32"><title>whatsapp</title><path d="M30,16A14,14,0,0,1,16,30a13.86,13.86,0,0,1-6.61-1.67L3.26,30A1.15,1.15,0,0,1,3,30a1,1,0,0,1-1-1.26l1.49-5.6h0a1,1,0,0,1,1.92.51h0l-1,3.94L9.27,26.3a1,1,0,0,1,.75.1,12.08,12.08,0,1,0-5.87-8.55l-2,.3A14.47,14.47,0,0,1,2,16a14,14,0,0,1,28,0ZM15.45,14.33a5.31,5.31,0,0,1-.61.51,9.86,9.86,0,0,0,1.06,1.28,9.84,9.84,0,0,0,1.27,1.05,5.17,5.17,0,0,1,.51-.6A3.18,3.18,0,0,1,21.47,16a7.19,7.19,0,0,1,2,1.5A3.56,3.56,0,0,1,24.53,20,4.16,4.16,0,0,1,23.2,23a5.09,5.09,0,0,1-3.74,1.53A8.37,8.37,0,0,1,16,23.63a17.18,17.18,0,0,1-4.49-3.09A17.18,17.18,0,0,1,8.38,16C6.59,12.12,8,9.83,9.06,8.81A4.13,4.13,0,0,1,12,7.48a3.61,3.61,0,0,1,2.55,1.1,7.6,7.6,0,0,1,1.5,2A3.17,3.17,0,0,1,15.45,14.33Zm-1,3.2a9,9,0,0,1-1.88-2.71,1,1,0,0,1,.35-1l.32-.25a9.12,9.12,0,0,0,.76-.62,1.16,1.16,0,0,0,.19-1.51A5.79,5.79,0,0,0,13.11,10,1.57,1.57,0,0,0,12,9.48a2.26,2.26,0,0,0-1.52.74c-1.16,1.16-1.25,2.84-.27,5a15.06,15.06,0,0,0,2.7,3.92,15.07,15.07,0,0,0,3.9,2.68c2.1,1,3.81.9,5-.27A2.26,2.26,0,0,0,22.53,20a1.56,1.56,0,0,0-.5-1.11,5.83,5.83,0,0,0-1.42-1.12A1.16,1.16,0,0,0,19.1,18a8,8,0,0,0-.62.76l-.24.32a1,1,0,0,1-1,.35A8.91,8.91,0,0,1,14.48,17.53Z"/></svg>